<svg xmlns="http://www.w3.org/2000/svg" width="312" height="81"><path fill="#1C2544" d="M135.918 35.035l-8.635.492-1.426-24.986 7.022-.401c6.142-.351 8.468 1.983 8.708 6.174.115 2.015-.764 4.168-2.568 4.918 2.514.22 4.46 2.616 4.636 5.678.247 4.354-1.942 7.794-7.737 8.125m-2.003-19.576l-2.033.116.237 4.151 2.034-.117c1.381-.078 1.865-1.036 1.799-2.205-.069-1.208-.693-2.022-2.037-1.945m1.07 8.632l-2.609.149.321 5.602 2.609-.149c2.379-.136 2.708-1.772 2.64-2.981-.079-1.371-.697-2.751-2.961-2.621M160.925 34.012c-7.561.431-13.792-4.187-14.247-12.166-.453-7.938 5.256-13.156 12.777-13.586 7.563-.392 13.825 4.104 14.28 12.083.453 7.939-5.25 13.237-12.81 13.669m-1.139-19.949c-3.991.228-7.219 3.04-6.967 7.433.252 4.433 3.779 6.86 7.77 6.632 4.067-.232 7.219-3.04 6.968-7.432-.253-4.433-3.703-6.864-7.771-6.633M191.255 32.281c-7.56.431-13.792-4.186-14.246-12.166-.453-7.938 5.256-13.157 12.777-13.586 7.563-.391 13.824 4.104 14.279 12.083.454 7.939-5.25 13.238-12.81 13.669m-1.138-19.948c-3.991.229-7.22 3.04-6.968 7.433.252 4.433 3.779 6.86 7.771 6.632 4.067-.232 7.22-3.04 6.968-7.432-.252-4.435-3.703-6.865-7.771-6.633M227.246 29.823l-12.553-13.515.81 14.186-5.948.338-1.425-24.986 5.947-.34.514 8.987s1.037-1.393 1.9-2.454l6.066-7.017 8.059-.46-9.711 10.621 13.901 14.207-7.56.433zM81.527 51.543c-8.23-.03-14.901 6.448-14.929 14.497-.029 8.089 6.598 14.605 14.866 14.621 8.245.016 14.902-6.449 14.927-14.5.027-8.089-6.579-14.587-14.864-14.618m-.425 22.005a7.438 7.438 0 0 1-7.458-7.426 7.42 7.42 0 0 1 7.468-7.465 7.412 7.412 0 0 1 7.424 7.444 7.434 7.434 0 0 1-7.434 7.447"/><path fill="#1C2544" d="M119.671 44.015l-12.494-18.568s-2.724-3.945-4.083-5.92a.278.278 0 0 0-.359-.086.277.277 0 0 0-.116.357c.001.005.001.011.004.016 1.14 2.109 3.254 6.339 3.254 6.339l9.027 16.118a105.307 105.307 0 0 0-7.22-1.485 107.876 107.876 0 0 0-11.267-1.285c-3.809-.221-7.721-.14-11.604.774a26.25 26.25 0 0 0-5.702 2.036c-.623.312-1.232.666-1.83 1.041-.088-.656-.171-1.313-.272-1.969a91.914 91.914 0 0 0-.541-3.124 50.721 50.721 0 0 0-.691-3.126.274.274 0 0 0-.063-.111l-.423-.001a.255.255 0 0 0-.063.112 49.283 49.283 0 0 0-.69 3.126 85.405 85.405 0 0 0-.542 3.124c-.102.656-.184 1.313-.272 1.969a22.188 22.188 0 0 0-1.83-1.041 26.264 26.264 0 0 0-5.702-2.036c-3.88-.915-7.792-.995-11.601-.775a104.696 104.696 0 0 0-8.066.803 116.37 116.37 0 0 0-3.201.482c-2.434.416-4.828.902-7.22 1.485l1.56-2.803 3.454-6.307 3.454-6.306c.374-.679.741-1.361 1.107-2.042.771-1.429 1.538-2.86 2.309-4.288.003-.006 0-.013.003-.019l.287-.492c-.65-15.63-1.584-15.466.803-17.05 3.389-2.25-3.99-3.122-5.169-2.94-5.865.905-11.725 1.85-17.586 2.78-4.006.637-8.012 1.281-12.02 1.903-.583.09-.966.321-1.085.926-.068.351-.203.691-.255 1.043-.219 1.452.264 2.044 1.712 2.175 1.022.094 2.042.22 3.063.331-.015.152-.009.197-.024.229-1.51 2.793-2.989 5.603-4.542 8.374-1.261 2.25-1.978 4.681-2.345 7.193-.374 2.564-.586 5.157-.749 7.747-.146 2.332-.14 4.674-.177 7.014-.006.473.119.947.143 1.424.009.191-.035.451-.159.57-2.125 2.031-3.748 4.469-5.519 6.785-.852 1.115-1.251 2.396-1.253 3.804-.001 1.071.314 1.469 1.383 1.378 1.907-.163 3.799-.477 5.706-.646 1.941-.174 3.893-.251 5.923-.376-1.07 1.187-2.02 2.26-3.004 3.302-.119.129-.426.156-.628.123-3.645-.6-6.852.302-9.464 2.927-4.054 4.073-4.026 10.607-.013 14.716 3.971 4.063 10.479 4.141 14.725.174 4.053-3.783 4.264-10.371.466-14.578-.236-.262-.479-.516-.764-.823 1.259-.771 2.463-1.514 3.682-2.237.092-.055.319-.006.41.076 1.155 1.047 2.337 2.066 3.426 3.179.857.877 1.512 1.904 1.554 3.214.07 2.215.169 4.43.253 6.643.005.2-.026.405.007.6.18 1.046.53 1.605 1.547 1.574 2.796-.086 5.594-.194 8.393-.194 5.559-.001 11.117.048 16.675.114 1.819.021 3.637.121 5.45.261.778.06 1.486-.004 2.222-.275.681-.251 2.465-.726 2.444-1.357-.04-1.273.194-2.489.477-3.724.576-2.53 3.481-8.984 4.994-11.363 1.511-2.381 5.433-3.731 7.374-4.752 1.5-.786 7.001-1.249 9.751-.499 3.505.956 8.238 5.345 9.359 7.429.202.378.767.646 1.218.791 2.072.662 1.752-10.785.331-13.469 3.349-.137 6.741.02 10.122.357 1.796.178 3.591.404 5.379.677 1.779.276 3.597.566 5.316.929l.155.033c.416.086.862.012 1.24-.242.749-.507.948-1.52.446-2.268M10.084 69.746c-2.079.015-3.694-1.544-3.706-3.576-.012-2.045 1.564-3.6 3.658-3.609 2.176-.01 3.826 1.54 3.823 3.592-.003 2.02-1.641 3.579-3.775 3.593m35.877-6.512c-.25-.057-5.489.133-7.845.19-1.611.039-3.126-.54-3.201-2.132-.791-10.556-7.954-15.372-8.679-16.058-.182-.172-.413-.294-.629-.423-.172-.103-.378-.152-.53-.273-1.34-1.067-2.907-1.662-4.51-2.172-1.075-.342-1.931-.963-2.56-1.88-1.378-2.016-2.683-4.069-3.231-6.503-.623-2.765-.757-5.535-.195-8.325.22-1.096.403-2.2.636-3.293.6-2.824 1.657-5.433 3.804-7.46 1.131-1.068 2.282-2.127 3.517-3.07 1.546-1.182 3.336-1.654 5.301-1.525.728.049 1.468-.129 2.205-.179 1.392-.095 2.785-.246 4.176-.241 4.82.018 10.458.146 10.458.146s.417 5.528.893 13.016a397.707 397.707 0 0 0-2.134 3.105l-4.046 5.944-4.044 5.944-4.008 5.968a1.637 1.637 0 0 0-.24 1.246 1.628 1.628 0 0 0 1.93 1.258l.151-.031c1.72-.362 3.538-.652 5.317-.929 1.788-.272 3.583-.499 5.378-.677a87.213 87.213 0 0 1 2.833-.237c.384 10.308.372 18.846-.747 18.591"/><path fill="#1C2544" d="M50.073 16.607c17.286-7.592 24.246 1.604 25.052 1.791.687.158 1.208-.418 1.141-1.119-.121-1.224-7.35-10.078-26.47-1.418-1.049.474-.485.98.277.746"/><path fill="#1C2544" d="M100.694 16.689c-8.124-3.567-13.968-3.427-17.962-2.258-4.506 1.32-6.662 3.95-7.09 4.049-.687.157-1.208-.419-1.141-1.12.088-.884 3.89-5.756 13.212-5.117 3.573.245 7.959 1.299 13.258 3.699 1.05.475.486.982-.277.747"/><path fill="#1C2544" d="M73.542 19.172c-1.291-1.005 5.019-1.006 3.709.053-1.309 1.059-1.518 4.865-1.506 5.166.003.12-.535.124-.539 0-.009-.289-.373-4.214-1.664-5.219M166.271 48.201l1.099 19.302-5.871.336-1.102-19.302-8.327.474-.324-5.682 22.489-1.285.325 5.684zM191.181 66.549c-7.559.432-13.791-4.186-14.246-12.165-.452-7.938 5.256-13.156 12.777-13.586 7.562-.392 13.824 4.104 14.28 12.082.453 7.94-5.251 13.239-12.811 13.669m-1.138-19.948c-3.991.229-7.218 3.039-6.968 7.434.252 4.433 3.779 6.859 7.77 6.631 4.068-.231 7.22-3.039 6.969-7.432-.252-4.434-3.704-6.864-7.771-6.633M221.513 64.82c-7.561.43-13.792-4.188-14.246-12.166-.453-7.938 5.255-13.157 12.776-13.586 7.562-.392 13.825 4.102 14.28 12.083.453 7.937-5.252 13.236-12.81 13.669m-1.139-19.949c-3.991.229-7.219 3.039-6.969 7.433.253 4.433 3.78 6.86 7.771 6.632 4.067-.232 7.22-3.04 6.969-7.432-.253-4.434-3.704-6.866-7.771-6.633M257.503 62.361L244.95 48.845l.809 14.186-5.948.34-1.424-24.987 5.946-.34.514 8.987s1.037-1.393 1.902-2.453l6.066-7.018 8.059-.46-9.711 10.621 13.899 14.207-7.559.433zM273.122 55.693l.326 5.724-5.949.339-.326-5.724zM285.282 61.058c-5.066.289-9.115-2.553-9.432-8.074s3.271-8.839 8.297-9.126c3.723-.212 6.668 1.481 6.668 1.481l.311 5.439s-3.047-2.091-6.654-1.886c-2.11.12-3.455 1.532-3.324 3.79.092 2.298 1.779 3.536 3.852 3.418 3.723-.213 6.344-2.869 6.344-2.869l.303 5.32c-.001.001-2.566 2.289-6.365 2.507M295.024 60.218l-.16-2.82 5.871-7.775c1.002-1.35 1.778-1.92 1.778-1.92l-8.175.467-.265-4.635 15.505-.885.162 2.861-5.916 7.656a41.96 41.96 0 0 1-1.697 1.955l8.749-.499.267 4.675-16.119.92z"/></svg>