<?xml version="1.0" encoding="utf-8"?>
<!-- Generator: Adobe Illustrator 23.0.3, SVG Export Plug-In . SVG Version: 6.00 Build 0)  -->
<svg version="1.1" id="Layer_1" xmlns="http://www.w3.org/2000/svg" xmlns:xlink="http://www.w3.org/1999/xlink" x="0px" y="0px"
	 viewBox="0 0 333.2 229.9" style="enable-background:new 0 0 333.2 229.9;" xml:space="preserve">
<style type="text/css">
	.st0{fill:#424143;}
	.st1{fill:#FCEE21;}
	.st2{fill:#FFF200;}
	.st3{fill:#414042;}
</style>
<g>
	<g>
		<g id="XMLID_362_">
			<g>
				<g id="XMLID_143_">
					<path id="XMLID_144_" class="st0" d="M149.1,80.3c0,0.5-0.2,0.9-0.5,1.2c-0.3,0.3-0.8,0.5-1.3,0.5c-0.4,0-0.7-0.1-1-0.2
						l-14.2-6c-0.5-0.2-1-0.6-1.3-1c-0.3-0.4-0.5-1-0.5-1.5c0-0.6,0.2-1.1,0.5-1.5c0.3-0.5,0.7-0.8,1.3-1l14.2-6.1
						c0.3-0.1,0.6-0.2,1-0.2c0.5,0,0.9,0.2,1.3,0.5c0.3,0.3,0.5,0.7,0.5,1.2c0,0.7-0.3,1.1-1,1.4l-13.5,5.7l13.5,5.7
						C148.8,79.2,149.1,79.6,149.1,80.3z"/>
				</g>
				<g id="XMLID_131_">
					<path id="XMLID_141_" class="st0" d="M153.8,81.7c-0.8-0.5-1.2-1.2-1.2-2.1c0-0.5,0.1-0.9,0.4-1.2c0.3-0.3,0.6-0.5,1-0.5
						c0.4,0,1,0.2,1.8,0.6c0.8,0.4,1.6,0.7,2.2,0.9c0.7,0.2,1.5,0.3,2.6,0.3c1.1,0,1.9-0.2,2.5-0.5c0.6-0.4,0.9-0.9,0.9-1.5
						c0-0.4-0.1-0.8-0.4-1c-0.2-0.3-0.7-0.5-1.3-0.7c-0.6-0.2-1.6-0.5-2.8-0.7c-2.3-0.5-3.9-1.1-4.9-1.9c-1-0.8-1.5-2-1.5-3.5
						c0-1.1,0.3-2.1,1-3c0.7-0.9,1.6-1.6,2.7-2.1c1.2-0.5,2.5-0.7,4-0.7c1.1,0,2.1,0.1,3.1,0.4c1,0.3,1.9,0.7,2.7,1.2
						c0.8,0.5,1.2,1.2,1.2,2c0,0.5-0.1,0.9-0.4,1.3c-0.3,0.3-0.6,0.5-1,0.5c-0.3,0-0.6-0.1-0.8-0.2c-0.3-0.1-0.6-0.3-1-0.5
						c-0.7-0.4-1.4-0.7-1.9-0.9c-0.5-0.2-1.2-0.3-2-0.3c-0.9,0-1.7,0.2-2.2,0.6c-0.5,0.4-0.8,0.9-0.8,1.6c0,0.6,0.3,1.1,0.8,1.5
						c0.6,0.3,1.6,0.7,3.2,1c1.7,0.4,3,0.8,4,1.2c1,0.5,1.7,1,2.1,1.7c0.4,0.7,0.6,1.6,0.6,2.6c0,1.7-0.7,3.1-2.2,4.2
						c-1.4,1-3.4,1.6-5.7,1.6C157.7,83.4,155.5,82.8,153.8,81.7z"/>
					<path id="XMLID_139_" class="st0" d="M199.1,65.8c1.1,1.2,1.6,3.2,1.6,5.9V81c0,0.7-0.2,1.3-0.7,1.7c-0.4,0.4-1,0.6-1.7,0.6
						c-0.7,0-1.3-0.2-1.7-0.6c-0.4-0.4-0.7-1-0.7-1.7v-9.4c0-1.4-0.2-2.4-0.7-3c-0.5-0.6-1.3-0.9-2.3-0.9c-1.2,0-2.2,0.4-3,1.3
						c-0.7,0.9-1.1,2-1.1,3.5V81c0,0.7-0.2,1.3-0.7,1.7c-0.4,0.4-1,0.6-1.7,0.6c-0.7,0-1.3-0.2-1.7-0.6c-0.5-0.4-0.7-1-0.7-1.7v-9.4
						c0-1.4-0.2-2.4-0.7-3c-0.5-0.6-1.3-0.9-2.3-0.9c-1.2,0-2.2,0.4-3,1.3c-0.7,0.9-1.1,2-1.1,3.5V81c0,0.7-0.2,1.3-0.7,1.7
						c-0.5,0.4-1,0.6-1.7,0.6c-0.7,0-1.3-0.2-1.7-0.6c-0.4-0.4-0.7-1-0.7-1.7V66.2c0-0.7,0.2-1.3,0.7-1.6c0.5-0.4,1-0.6,1.7-0.6
						c0.7,0,1.2,0.2,1.6,0.6c0.4,0.4,0.6,0.9,0.6,1.6v0.9c0.6-1,1.4-1.8,2.3-2.3c1-0.5,2.1-0.8,3.4-0.8c2.8,0,4.7,1.2,5.6,3.5
						c0.6-1.1,1.4-1.9,2.5-2.6c1.1-0.6,2.3-1,3.7-1C196.5,64,198,64.6,199.1,65.8z"/>
					<path id="XMLID_136_" class="st0" d="M219.5,65.9c1.3,1.3,1.9,3.2,1.9,5.9v9.3c0,0.7-0.2,1.2-0.6,1.6c-0.4,0.4-1,0.6-1.7,0.6
						c-0.7,0-1.2-0.2-1.6-0.6c-0.4-0.4-0.6-0.9-0.6-1.6v-0.8c-0.4,1-1.1,1.8-2,2.3c-0.9,0.6-2,0.8-3.2,0.8c-1.2,0-2.4-0.3-3.4-0.8
						c-1-0.5-1.8-1.2-2.4-2.1c-0.6-0.9-0.9-1.9-0.9-3c0-1.4,0.3-2.5,1.1-3.2c0.7-0.8,1.8-1.4,3.4-1.7c1.6-0.4,3.8-0.5,6.5-0.5h1
						v-0.9c0-1.2-0.3-2.2-0.8-2.7c-0.5-0.6-1.4-0.9-2.6-0.9c-0.7,0-1.5,0.1-2.3,0.3c-0.8,0.2-1.7,0.5-2.7,0.9
						c-0.7,0.3-1.1,0.5-1.5,0.5c-0.5,0-0.8-0.2-1.1-0.5c-0.3-0.3-0.4-0.8-0.4-1.3c0-0.4,0.1-0.8,0.3-1.1c0.2-0.3,0.6-0.6,1.1-0.9
						c0.9-0.5,2-0.9,3.2-1.1c1.2-0.3,2.5-0.4,3.6-0.4C216.3,64,218.2,64.6,219.5,65.9z M215.6,78.7c0.8-0.9,1.2-2,1.2-3.3v-0.8h-0.7
						c-1.7,0-3,0.1-4,0.2c-0.9,0.2-1.6,0.4-2,0.8c-0.4,0.4-0.6,0.9-0.6,1.6c0,0.8,0.3,1.5,0.9,2c0.6,0.5,1.3,0.8,2.1,0.8
						C213.8,80,214.8,79.5,215.6,78.7z"/>
					<path id="XMLID_134_" class="st0" d="M238.2,64.5c0.4,0.3,0.6,0.8,0.6,1.5c0,0.7-0.2,1.2-0.5,1.5c-0.3,0.3-0.9,0.5-1.8,0.6
						l-1.1,0.1c-1.5,0.2-2.6,0.7-3.3,1.5c-0.7,0.9-1.1,1.9-1.1,3.2v8c0,0.7-0.2,1.3-0.7,1.7c-0.5,0.4-1,0.6-1.7,0.6
						c-0.7,0-1.3-0.2-1.7-0.6c-0.4-0.4-0.7-1-0.7-1.7V66.2c0-0.7,0.2-1.3,0.7-1.6c0.4-0.4,1-0.6,1.7-0.6s1.2,0.2,1.6,0.6
						c0.4,0.4,0.6,0.9,0.6,1.6v1.5c0.5-1.1,1.2-2,2.2-2.6c1-0.6,2-1,3.2-1l0.5,0C237.3,64,237.8,64.1,238.2,64.5z"/>
					<path id="XMLID_132_" class="st0" d="M254.2,81.5c0,0.6-0.2,1.1-0.7,1.4c-0.5,0.3-1.2,0.5-2.1,0.4l-1-0.1
						c-4.3-0.3-6.4-2.6-6.4-6.9V68h-1.9c-0.7,0-1.2-0.2-1.6-0.5c-0.4-0.3-0.6-0.8-0.6-1.3c0-0.6,0.2-1,0.6-1.3
						c0.4-0.3,0.9-0.5,1.6-0.5h1.9v-3.5c0-0.7,0.2-1.2,0.6-1.6c0.4-0.4,1-0.6,1.8-0.6c0.7,0,1.3,0.2,1.7,0.6c0.4,0.4,0.6,1,0.6,1.6
						v3.5h3.2c0.7,0,1.2,0.2,1.6,0.5c0.4,0.3,0.6,0.8,0.6,1.3c0,0.6-0.2,1-0.6,1.3c-0.4,0.3-0.9,0.5-1.6,0.5h-3.2v8.7
						c0,1.9,0.9,2.9,2.6,3l1,0.1C253.5,79.8,254.2,80.4,254.2,81.5z"/>
				</g>
				<g id="XMLID_128_">
					<path id="XMLID_129_" class="st0" d="M274.5,71.7c0.3,0.5,0.5,1,0.5,1.5c0,0.6-0.2,1.1-0.5,1.5c-0.3,0.4-0.7,0.8-1.3,1l-14.2,6
						c-0.3,0.1-0.6,0.2-1,0.2c-0.5,0-0.9-0.2-1.3-0.5c-0.3-0.3-0.5-0.7-0.5-1.2c0-0.7,0.3-1.1,1-1.4l13.5-5.7l-13.5-5.7
						c-0.6-0.3-1-0.8-1-1.4c0-0.5,0.2-0.9,0.5-1.2c0.3-0.3,0.8-0.5,1.3-0.5c0.3,0,0.6,0.1,1,0.2l14.2,6.1
						C273.8,70.9,274.2,71.2,274.5,71.7z"/>
				</g>
			</g>
		</g>
		<g id="XMLID_341_">
			<path id="XMLID_360_" class="st1" d="M137.2,118.7l0.5-0.5c0.5-0.5,1.2-1.3,2-2.4c0.8-1.1,1.6-2.7,2.4-4.7
				c0.3-0.6,0.6-0.9,1.1-0.9c0.4,0,0.5,0.2,0.5,0.6c0,0.2,0,0.3-0.1,0.6c-0.6,1.6-1.2,3-1.9,4.2c-0.7,1.2-1.4,2.1-2.1,2.9
				c-0.7,0.8-1.4,1.5-2.1,1.9c-0.7,0.5-1.3,0.9-1.9,1.1c-0.7,1-1.4,1.8-2.3,2.5c-0.9,0.7-1.9,1.1-3,1.1c-0.8,0-1.4-0.2-1.9-0.5
				c-0.5-0.3-1-0.7-1.3-1.2c-0.3-0.5-0.6-1-0.7-1.6c-0.2-0.6-0.2-1.1-0.2-1.5c0-0.9,0.1-1.6,0.3-2.3c0.2-0.7,0.5-1.3,0.8-1.7
				c0.3-0.5,0.6-0.8,1-1.1c0.3-0.2,0.6-0.4,0.8-0.4c0.3,0,0.6,0.3,0.9,0.8c0.3,0.5,0.6,1.2,1,2.1c0.5,1.4,0.9,2.3,1.3,2.9
				c0.4,0,0.7-0.1,1.1-0.2c0.4-0.1,0.7-0.2,1.1-0.3c0.2-0.4,0.3-0.7,0.3-0.9c0-0.5-0.1-1-0.4-1.6c-0.3-0.6-0.6-1.3-1-2
				c-0.4-0.7-0.8-1.4-1.3-2.1c-0.5-0.7-0.9-1.4-1.4-2c-0.5-0.6-0.9-1.2-1.3-1.8c-0.4-0.5-0.7-1-0.9-1.3c-0.2,0.6-0.3,1.1-0.5,1.5
				c-0.1,0.4-0.3,0.8-0.4,1.1c-0.2,0.5-0.3,0.8-0.5,1c-0.1,0.2-0.3,0.2-0.5,0.2c-0.4,0-0.6-0.2-0.6-0.7c0-0.2,0-0.3,0.1-0.5
				c0.2-0.7,0.4-1.2,0.5-1.8c0.1-0.5,0.3-0.9,0.4-1.3c0.1-0.4,0.2-0.8,0.3-1.1c-0.4-0.5-0.8-1.1-1.1-1.8c-0.3-0.7-0.5-1.6-0.5-2.7
				c0-0.8,0.1-1.6,0.4-2.6c0.3-0.9,0.7-1.8,1.1-2.6c0.5-0.8,0.9-1.5,1.5-2.1c0.5-0.6,1.1-0.8,1.6-0.8c0.3,0,0.6,0.1,0.8,0.3
				c0.2,0.2,0.4,0.4,0.6,0.7c0.2,0.3,0.3,0.6,0.4,1c0.1,0.4,0.1,0.8,0.1,1.1c0,0.9-0.2,1.8-0.5,2.9c0,0.1-0.1,0.2-0.1,0.4
				c0,0.2-0.1,0.4-0.1,0.6c0,0.7,0.5,1.7,1.4,3.1c1,1.3,2.1,2.8,3.6,4.4c0.7,0.8,1.2,1.6,1.5,2.5c0.3,0.9,0.5,1.9,0.5,3
				c0,0.4,0,0.7-0.1,1.2c-0.1,0.4-0.2,0.8-0.3,1L137.2,118.7z"/>
			<path id="XMLID_357_" class="st1" d="M150.2,121.9c0.6,0,1.1-0.2,1.6-0.6c0.5-0.4,0.8-0.9,1.1-1.6c0.3-0.7,0.6-1.4,0.8-2.3
				c0.2-0.9,0.4-1.8,0.5-2.7c-0.7-0.5-1.4-1.2-2.1-2c-0.7-0.8-1.3-1.8-1.9-2.9c-0.3-0.7-0.6-1.4-0.7-2.1c-0.2-0.7-0.2-1.4-0.2-2.1
				c0-0.8,0.1-1.6,0.3-2.3c0.2-0.7,0.6-1.4,1-1.9c0.4-0.5,1-0.9,1.6-1.3c0.7-0.3,1.4-0.5,2.3-0.5c1.1,0,2,0.3,2.7,0.8
				c0.7,0.5,1.2,1.2,1.6,2c0.4,0.8,0.7,1.7,0.8,2.6c0.2,0.9,0.2,1.8,0.2,2.6c0,1.1-0.1,2.1-0.2,3.2c-0.1,1.1-0.4,2.2-0.7,3.4
				c0.9-0.1,1.8-0.3,2.5-0.8c0.7-0.4,1.3-1.2,1.8-2.2c0.3-0.6,0.6-0.9,0.9-0.9c0.2,0,0.3,0.1,0.5,0.2c0.1,0.1,0.2,0.3,0.2,0.5
				c0,0.2,0,0.4-0.1,0.5c-0.5,1.4-1.3,2.6-2.5,3.4s-2.5,1.2-3.9,1.2c-0.4,1.2-0.9,2.4-1.6,3.5c-0.6,1.1-1.3,2.1-2.2,2.9
				c-0.8,0.8-1.8,1.5-2.8,2c-1.1,0.5-2.2,0.7-3.5,0.7c-0.7,0-1.4-0.1-2.3-0.3c-0.9-0.2-1.7-0.6-2.4-1.3c-0.8-0.6-1.4-1.5-1.9-2.7
				c-0.5-1.2-0.8-2.7-0.8-4.7c0-1.6,0.3-3.3,0.9-5c0.6-1.8,1.6-3.5,3-5.2c0.5-0.7,1-1.1,1.5-1.4c0.4-0.3,0.8-0.4,1.1-0.4
				c0.6,0,0.8,0.3,0.8,1c0,0.3-0.1,0.7-0.3,1.1c-0.2,0.5-0.4,1-0.6,1.7c-0.2,0.7-0.4,1.5-0.6,2.5c-0.2,1-0.3,2.1-0.3,3.4
				c0,2.5,0.4,4.5,1.1,5.9C148.1,121.2,149,121.9,150.2,121.9z M154.4,110.8c0-2.6-0.2-4.4-0.7-5.5c-0.5-1.1-1-1.6-1.6-1.3
				c-0.3,0.1-0.4,0.3-0.4,0.7c0,0.4-0.1,0.7-0.1,1c0,0.6,0.1,1.1,0.2,1.7c0.2,0.6,0.3,1.2,0.6,1.8c0.2,0.6,0.5,1.2,0.9,1.7
				c0.3,0.5,0.7,1,1.1,1.5c0-0.3,0-0.5,0-0.8C154.4,111.4,154.4,111.1,154.4,110.8z"/>
			<path id="XMLID_354_" class="st1" d="M179.8,111.5c-0.9,2.6-1.9,4.8-2.8,6.6c-0.9,1.8-1.9,3.2-2.8,4.2c0.5,0.7,0.8,1.7,1.1,2.8
				c0.3,1.1,0.5,2.3,0.6,3.4c0.1,1.1,0.2,2.1,0.2,2.9c0,0.8,0,1.3,0,1.5c0,2.4-0.2,4.5-0.5,6.3c-0.3,1.7-0.7,3.2-1.1,4.5
				c-0.5,1.2-1.1,2.2-1.7,3.1c-0.7,0.8-1.4,1.5-2.2,2c-0.5,0.4-1.1,0.7-1.7,1c-0.6,0.3-1.2,0.4-1.7,0.4c-0.6,0-1.2-0.2-1.9-0.6
				c-0.7-0.4-1.3-1-1.8-1.7c-0.5-0.8-1-1.7-1.3-2.8c-0.4-1.1-0.5-2.4-0.5-3.8c0-1.4,0.1-3,0.2-4.9c0.1-1.9,0.2-4,0.4-6.3
				c0.2-2.3,0.4-4.7,0.6-7.2c0.2-2.5,0.5-5.1,0.7-7.6c0.2-2.5,0.5-5,0.7-7.5c0.3-2.4,0.5-4.7,0.7-6.8c0.2-2.1,0.5-4,0.7-5.6
				c0.2-1.6,0.4-3,0.5-3.9c0.4-2.6,0.8-4.7,1.3-6.4c0.4-1.7,0.8-3,1.3-4.1c0.4-1.1,0.9-1.9,1.3-2.4c0.4-0.5,0.9-1,1.3-1.2
				c0.4-0.3,0.9-0.5,1.4-0.7c0.5-0.2,0.9-0.4,1.4-0.7c0.7-0.4,1.3-0.8,1.9-1c0.5-0.2,1-0.4,1.5-0.4c0.3,0,0.7,0.1,1,0.2
				c0.3,0.2,0.6,0.4,0.9,0.8c0.3,0.4,0.5,1,0.6,1.7c0.2,0.7,0.2,1.6,0.2,2.7c0,1.6-0.1,3.4-0.4,5.4c-0.3,2-0.7,4.1-1.2,6.3
				c-0.6,2.2-1.2,4.4-2,6.7c-0.8,2.3-1.6,4.4-2.5,6.5c-0.9,2.1-1.8,4.1-2.7,6c-0.9,1.9-1.7,3.6-2.5,5.1c-0.3,2.8-0.5,5.8-0.7,9
				c-0.2,3.2-0.4,6.5-0.6,10c-0.1,1.1-0.1,2.1-0.2,3.1c-0.1,1-0.1,2-0.1,2.9c0,1.4,0.1,2.6,0.3,3.6c0.2,0.9,0.7,1.4,1.3,1.4
				s1.2-0.3,1.6-1c0.4-0.7,0.8-1.6,1-2.7c0.3-1.1,0.4-2.4,0.5-3.8c0.1-1.4,0.2-2.8,0.2-4.3c0-1.6-0.1-3.2-0.2-4.8
				c-0.1-1.6-0.4-3-0.7-4.2c-0.1-0.3-0.2-0.5-0.3-0.7c-0.1-0.2-0.2-0.4-0.4-0.6c-0.2-0.2-0.3-0.3-0.4-0.6c-0.1-0.2-0.2-0.4-0.2-0.6
				c0-0.4,0.1-0.7,0.4-1c0.2-0.3,0.6-0.5,1.1-0.5c0.3-0.1,0.6-0.3,1-0.5c0.4-0.2,0.8-0.6,1.2-1c0.6-0.6,1.3-1.6,2.1-3.1
				c0.7-1.4,1.5-3.1,2.4-5.1c0.1-0.3,0.3-0.6,0.5-0.7c0.2-0.1,0.4-0.2,0.5-0.2c0.4,0,0.5,0.2,0.5,0.6c0,0.1,0,0.2,0,0.2
				C179.9,111.3,179.8,111.4,179.8,111.5z M171.7,90c-0.2,1.6-0.5,4.1-0.9,7.4c-0.4,3.3-0.9,7.3-1.3,12c1-2.5,2-5.2,3.1-8.2
				c1-3,1.8-6.2,2.5-9.5c0.5-2.9,0.9-5.2,1.1-7c0.2-1.8,0.3-3.2,0.3-4.3c0-0.7,0-1.2-0.1-1.6c-0.1-0.4-0.1-0.7-0.2-1
				c-0.1-0.2-0.2-0.4-0.3-0.5c-0.1-0.1-0.2-0.1-0.3-0.1c-0.3,0-0.5,0.2-0.8,0.7c-0.3,0.5-0.5,1.1-0.8,1.8c-0.3,0.7-0.5,1.6-0.7,2.5
				c-0.2,0.9-0.4,1.9-0.6,2.8c-0.2,0.9-0.4,1.9-0.5,2.8C171.9,88.6,171.8,89.3,171.7,90z"/>
			<path id="XMLID_352_" class="st1" d="M193.6,111.5c-0.8,2.3-1.5,4.3-2.2,6c-0.6,1.7-1.3,3.1-1.9,4.3c-0.7,1.1-1.4,2-2.1,2.6
				c-0.8,0.6-1.7,0.8-2.7,0.8c-0.6,0-1.2-0.2-1.9-0.5c-0.7-0.3-1.3-1-1.9-1.9c-0.6-1-1.1-2.3-1.4-4c-0.4-1.7-0.6-4-0.6-6.7
				c0-0.7,0-1.7,0.1-2.9c0.1-1.2,0.1-2.5,0.2-4c0.1-1.5,0.2-3,0.3-4.7c0.1-1.6,0.3-3.3,0.4-5c-0.1,0-0.2,0-0.3,0.1
				c-0.1,0-0.2,0-0.3,0c-1.4,0.2-2.4,0.3-3,0.4c-0.6,0.1-1,0.2-1.1,0.4c-0.1,0.1-0.2,0.2-0.2,0.4c0,0.1,0,0.3,0,0.4
				c0,0.1,0,0.2-0.1,0.3c-0.1,0.1-0.2,0.1-0.4,0.1c-0.1,0-0.3,0-0.5-0.1c-0.2-0.1-0.4-0.2-0.6-0.3c-0.2-0.1-0.3-0.3-0.5-0.5
				c-0.1-0.2-0.2-0.5-0.2-0.8c0-0.3,0.1-0.6,0.2-0.9c0.1-0.3,0.3-0.6,0.4-0.9c0.2-0.3,0.4-0.7,0.8-1.1c0.3-0.4,0.8-0.9,1.4-1.3
				c0.6-0.4,1.3-0.8,2.1-1.2c0.8-0.4,1.8-0.7,2.9-0.9c0.1-1.1,0.3-2,0.4-2.8c0.1-0.8,0.3-1.5,0.4-2.2c0.2-0.6,0.3-1.2,0.4-1.7
				c0.1-0.5,0.3-1,0.4-1.4c0.3-1,0.7-1.7,1.1-2.2c0.5-0.5,1-1.1,1.5-1.6c0.6-0.6,1.2-1,1.6-1.3c0.4-0.2,0.8-0.3,1-0.4
				c0.2,0,0.4,0.1,0.6,0.2c0.2,0.1,0.3,0.4,0.3,0.7c0,0.2,0,0.4,0,0.5c0,0.1-0.1,0.3-0.1,0.4c-0.1,0.3-0.2,0.8-0.4,1.5
				c-0.2,0.7-0.4,1.6-0.6,2.6c-0.2,1-0.4,2.2-0.7,3.4c-0.2,1.3-0.4,2.6-0.6,4.1c1.4,0.1,2.5,0.3,3.4,0.5c0.9,0.2,1.5,0.4,1.7,0.4
				c0.4,0.2,0.7,0.3,0.9,0.4c0.2,0.1,0.3,0.3,0.4,0.6c0.1,0.2,0.2,0.4,0.4,0.5c0.1,0.1,0.3,0.2,0.4,0.3c0.1,0.1,0.3,0.2,0.4,0.3
				c0.1,0.1,0.2,0.3,0.2,0.5c0,0.2-0.1,0.4-0.2,0.6c-0.1,0.2-0.2,0.3-0.3,0.4c-0.2,0.1-0.5,0.2-1,0.3c-0.5,0.1-1.1,0.2-1.7,0.3
				c-0.7,0.1-1.5,0.2-2.3,0.3c-0.9,0.1-1.8,0.2-2.7,0.3c-0.3,3.1-0.6,6.1-0.9,9c-0.3,2.9-0.4,5.5-0.4,7.7c0,1.2,0.1,2.2,0.2,3.2
				c0.1,1,0.3,1.8,0.6,2.5c0.3,0.7,0.6,1.2,1,1.6c0.4,0.4,0.8,0.6,1.3,0.6c0.5,0,0.9-0.2,1.2-0.6c0.4-0.4,0.8-1,1.1-1.7
				c0.4-0.7,0.8-1.6,1.2-2.6c0.4-1,0.8-2.1,1.3-3.3c0.2-0.6,0.6-0.9,1-0.9c0.4,0,0.6,0.2,0.6,0.7c0,0.1,0,0.2,0,0.3
				C193.7,111.3,193.6,111.4,193.6,111.5z"/>
			<path id="XMLID_349_" class="st1" d="M226.1,111.5c-0.5,1.5-1.3,2.6-2.3,3.4c-1,0.8-2.1,1.2-3.4,1.2c-0.7,0-1.3-0.1-1.9-0.3
				c-0.6,1.4-1.4,2.7-2.2,3.8c-0.8,1.2-1.7,2.2-2.6,3c-0.9,0.8-1.8,1.5-2.7,2c-0.9,0.5-1.7,0.7-2.5,0.7c-0.4,0-0.6-0.1-0.9-0.3
				c-0.2-0.2-0.5-0.5-0.8-0.8c-0.3-0.4-0.6-0.8-0.9-1.5c-0.3-0.6-0.7-1.4-1-2.3c-1.2,1.5-2.4,2.7-3.7,3.6c-1.3,0.9-2.4,1.3-3.4,1.3
				c-0.4,0-0.6-0.1-0.9-0.3c-0.2-0.2-0.5-0.5-0.8-0.8c-0.3-0.5-0.7-1.1-1.1-1.9c-0.5-0.8-0.9-1.9-1.3-3.1c-0.4-1.2-0.8-2.7-1.1-4.4
				c-0.3-1.7-0.4-3.6-0.4-5.8c0-1,0.1-1.9,0.2-2.6c0.1-0.7,0.2-1.3,0.4-1.7c0.2-0.5,0.3-0.8,0.5-1.1c0.2-0.3,0.3-0.5,0.5-0.6
				c0.2-0.2,0.3-0.3,0.4-0.4c0.1-0.1,0.2-0.2,0.3-0.2c0.2,0,0.3,0.1,0.4,0.2c0.1,0.1,0.3,0.2,0.4,0.2c0.1,0,0.3-0.1,0.5-0.2
				c0.2-0.1,0.4-0.3,0.6-0.4c0.2-0.2,0.4-0.3,0.6-0.4c0.2-0.1,0.4-0.2,0.5-0.2c0.1,0,0.2,0.1,0.4,0.2c0.1,0.1,0.2,0.4,0.2,0.7
				c0,0.4,0,0.7-0.1,1c-0.1,0.3-0.1,0.6-0.2,1.1c-0.1,0.4-0.1,0.9-0.2,1.5c-0.1,0.6-0.1,1.4-0.1,2.3c0,2.8,0.3,5.4,0.9,7.9
				c0.6,2.4,1.4,4.4,2.4,6c0.4-0.6,0.9-1.3,1.4-2.2c0.5-0.9,1-2.1,1.4-3.6c-0.2-1.1-0.4-2.2-0.5-3.4c-0.1-1.2-0.2-2.6-0.2-4.1
				c0-1,0.1-1.9,0.2-2.6c0.1-0.7,0.2-1.3,0.4-1.7c0.2-0.5,0.3-0.8,0.5-1.1c0.2-0.3,0.3-0.5,0.5-0.6c0.2-0.2,0.3-0.3,0.4-0.4
				c0.1-0.1,0.2-0.2,0.3-0.2c0.2,0,0.3,0.1,0.4,0.2c0.1,0.1,0.3,0.2,0.4,0.2c0.1,0,0.3-0.1,0.5-0.2c0.2-0.1,0.4-0.3,0.6-0.4
				c0.2-0.2,0.4-0.3,0.6-0.4c0.2-0.1,0.4-0.2,0.5-0.2c0.1,0,0.2,0.1,0.4,0.2c0.1,0.1,0.2,0.4,0.2,0.7c0,0.4,0,0.7-0.1,1
				c-0.1,0.3-0.1,0.6-0.2,1.1c-0.1,0.4-0.1,0.9-0.2,1.5c0,0.6-0.1,1.4-0.1,2.3c0,2.8,0.3,5.4,0.9,7.9c0.6,2.4,1.4,4.4,2.4,6
				c0.3-0.4,0.5-0.8,0.8-1.3c0.3-0.5,0.6-1.1,0.9-1.8c0.3-0.7,0.6-1.5,0.9-2.4s0.5-2,0.7-3.2c-0.5-0.5-0.9-1-1.3-1.7
				c-0.4-0.6-0.8-1.4-1.2-2.2c-0.3-0.7-0.6-1.4-0.7-2.1c-0.2-0.7-0.2-1.4-0.2-2.1c0-0.8,0.1-1.5,0.3-2.2c0.2-0.7,0.5-1.3,0.9-1.8
				c0.4-0.5,0.8-0.9,1.3-1.2c0.5-0.3,1-0.5,1.6-0.5c1.4,0,2.5,0.6,3.5,1.9c0.9,1.2,1.4,3,1.4,5.2c0,1.3-0.1,2.5-0.4,3.7
				c-0.2,1.2-0.6,2.4-1,3.5c0.5,0.1,0.9,0.2,1.3,0.2c0.9,0,1.7-0.3,2.5-0.8c0.7-0.5,1.3-1.3,1.7-2.4c0.2-0.6,0.5-0.9,0.9-0.9
				c0.2,0,0.3,0.1,0.4,0.2c0.1,0.1,0.2,0.3,0.2,0.5C226.2,111.1,226.2,111.2,226.1,111.5z M213.6,105.7c0,0.8,0.2,1.7,0.5,2.7
				c0.3,0.9,0.8,1.8,1.3,2.7c0.1-0.5,0.1-1,0.1-1.6c0-0.6,0-1.2,0-1.8c0-1.3-0.1-2.3-0.2-3.1c-0.2-0.8-0.4-1.3-0.8-1.2
				c-0.2,0-0.4,0.1-0.5,0.2c-0.1,0.2-0.2,0.4-0.3,0.6c-0.1,0.3-0.1,0.5-0.1,0.8C213.6,105.2,213.6,105.5,213.6,105.7z"/>
			<path id="XMLID_347_" class="st1" d="M245.9,111.5c-0.8,2.3-1.5,4.2-2.1,5.9c-0.7,1.7-1.3,3.1-2,4.3c-0.7,1.1-1.4,2-2.1,2.6
				c-0.7,0.6-1.6,0.9-2.5,0.9c-0.6,0-1.1-0.2-1.6-0.6c-0.4-0.4-0.8-0.9-1-1.4c-0.3-0.5-0.5-1-0.6-1.5c-0.1-0.5-0.2-0.8-0.3-0.9
				c0-0.1-0.1-0.1-0.1-0.2c0-0.1-0.1-0.2-0.1-0.2c-0.1,0-0.1,0-0.1,0.1c0,0.1-0.1,0.2-0.1,0.2c-0.1,0.2-0.3,0.5-0.6,1
				c-0.3,0.5-0.7,1-1.2,1.5c-0.5,0.5-1,0.9-1.7,1.3c-0.6,0.4-1.3,0.6-2,0.6c-0.6,0-1.1-0.2-1.7-0.6c-0.5-0.4-1-0.9-1.4-1.5
				c-0.4-0.6-0.7-1.4-1-2.3c-0.2-0.9-0.4-1.8-0.4-2.8c0-2.2,0.3-4.2,1-6.2c0.7-1.9,1.8-3.9,3.4-5.8c0.8-0.9,1.6-1.8,2.4-2.5
				c0.8-0.7,1.7-1.3,2.5-1.8c0.8-0.5,1.6-0.9,2.3-1.1c0.7-0.3,1.4-0.4,1.9-0.4c0.4,0,0.7,0.1,1.1,0.2c0.4,0.1,0.7,0.3,0.9,0.6
				c0.3,0.3,0.5,0.7,0.7,1.2c0.2,0.5,0.2,1.1,0.2,1.8c0,0.8-0.1,1.6-0.4,2.5c-0.2,0.9-0.6,1.7-1.1,2.5c-0.5,0.8-1,1.4-1.7,1.9
				c-0.7,0.5-1.4,0.8-2.3,0.8c-0.5,0-0.8-0.2-0.8-0.6c0-0.3,0.1-0.7,0.2-1.4c0.1-0.6,0.2-1.2,0.2-1.8c0-0.2,0-0.5,0-0.8
				c0-0.3-0.1-0.6-0.2-0.9c-0.1-0.3-0.2-0.6-0.4-0.8c-0.2-0.2-0.4-0.3-0.7-0.3c-0.7,0-1.3,0.3-1.8,0.9c-0.5,0.6-0.9,1.4-1.3,2.3
				c-0.3,0.9-0.6,1.8-0.8,2.8c-0.2,1-0.3,1.8-0.3,2.5c0,1,0.1,1.8,0.2,2.4c0.2,0.6,0.4,1.2,0.6,1.5c0.3,0.4,0.5,0.7,0.9,0.8
				c0.3,0.2,0.7,0.2,1,0.2c0.8,0,1.6-0.3,2.2-0.8c0.7-0.6,1.2-1.2,1.7-1.9c0.5-0.7,0.9-1.3,1.2-1.9c0.3-0.6,0.6-0.8,0.8-0.8
				c0.2,0,0.4,0.3,0.5,0.8c0.2,1.1,0.3,2.1,0.5,2.8c0.2,0.7,0.4,1.3,0.5,1.7c0.2,0.4,0.4,0.7,0.5,0.9c0.2,0.2,0.4,0.2,0.6,0.2
				c0.4,0,0.8-0.2,1.1-0.7c0.4-0.4,0.8-1,1.1-1.8c0.4-0.8,0.8-1.6,1.2-2.6c0.4-1,0.8-2.1,1.3-3.2c0.3-0.6,0.6-0.9,1-0.9
				c0.4,0,0.6,0.2,0.6,0.7C246,111.2,245.9,111.3,245.9,111.5z"/>
			<path id="XMLID_345_" class="st1" d="M262.8,111.5c-0.6,2-1.2,3.8-1.8,5.4c-0.6,1.7-1.2,3.1-1.9,4.3c-0.7,1.2-1.4,2.1-2.2,2.8
				c-0.8,0.7-1.7,1-2.8,1c-1.3,0-2.3-0.6-3-1.9c-0.8-1.3-1.1-2.9-1.1-5c0-0.9,0-1.8,0.1-2.6c0.1-0.8,0.2-1.6,0.3-2.3
				c0.1-0.8,0.2-1.5,0.3-2.2c0.1-0.7,0.1-1.4,0.1-2.1c0-0.7-0.1-1.2-0.3-1.4c-0.2-0.2-0.4-0.3-0.7-0.3c-0.1,0-0.1,0-0.2,0
				c-0.1,0-0.1,0-0.3,0c-0.1,0-0.3,0-0.6,0.1c-0.3,0-0.6,0.1-1.1,0.1c-0.3,0.6-0.5,1.1-0.7,1.5c-0.2,0.4-0.3,0.8-0.5,1.1
				c-0.1,0.3-0.2,0.6-0.3,0.8c-0.1,0.2-0.2,0.4-0.2,0.7c-0.2,0.5-0.4,0.8-0.5,0.9c-0.2,0.1-0.3,0.2-0.5,0.2c-0.2,0-0.3-0.1-0.4-0.2
				c-0.1-0.1-0.2-0.3-0.2-0.5c0-0.2,0-0.3,0.1-0.5c0.1-0.2,0.2-0.5,0.3-0.8c0.1-0.3,0.2-0.8,0.4-1.3c0.1-0.5,0.3-1.2,0.4-2
				c-0.5-0.2-0.9-0.8-1.3-1.6c-0.4-0.8-0.5-1.8-0.5-3c0-0.9,0.2-1.9,0.5-2.8c0.3-1,0.7-1.8,1.2-2.6c0.5-0.8,1-1.4,1.5-1.9
				c0.5-0.5,1-0.8,1.5-0.8c0.6,0,1,0.3,1.4,1c0.4,0.7,0.6,1.4,0.6,2.3c0,0.5-0.1,0.9-0.2,1.4c-0.1,0.5-0.2,0.9-0.3,1.3
				c-0.1,0.4-0.2,0.7-0.3,1.1c-0.1,0.3-0.2,0.6-0.2,0.7c0,0.2,0.1,0.3,0.3,0.3c0.1,0,0.4-0.1,0.7-0.2l1.8-0.8
				c0.7-0.3,1.3-0.4,1.7-0.4c0.8,0,1.3,0.3,1.6,0.8c0.3,0.5,0.4,1.2,0.4,2.2c0,0.4-0.1,1.2-0.2,2.2c-0.1,1.1-0.2,2.3-0.3,3.5
				c-0.1,1.3-0.2,2.6-0.3,3.9c-0.1,1.3-0.1,2.3-0.1,3.1c0,0.9,0.1,1.5,0.3,1.9c0.2,0.4,0.6,0.6,1.2,0.6c0.5,0,0.9-0.3,1.3-0.8
				c0.4-0.5,0.9-1.2,1.3-2c0.4-0.8,0.8-1.7,1.1-2.6c0.4-1,0.7-1.9,1-2.8c0.2-0.6,0.6-0.9,1-0.9c0.4,0,0.6,0.2,0.6,0.7
				c0,0.1,0,0.2,0,0.2C262.9,111.3,262.8,111.4,262.8,111.5z"/>
			<path id="XMLID_342_" class="st1" d="M280.1,110.3c0.2,0,0.3,0.1,0.4,0.2c0.1,0.1,0.2,0.3,0.2,0.5c0,0.2,0,0.4-0.1,0.6
				c-0.4,1.1-0.8,2-1.2,3c-0.4,0.9-0.8,1.8-1.2,2.5c-0.5,0.8-0.9,1.6-1.3,2.3c-0.5,0.8-1.1,1.6-1.8,2.4c-0.6,0.7-1.3,1.4-2.1,2
				c-0.8,0.6-1.6,1-2.5,1.3c-0.9,0.3-1.8,0.5-2.8,0.5c-0.7,0-1.5-0.1-2.4-0.4c-0.9-0.3-1.7-0.7-2.4-1.4c-0.7-0.7-1.4-1.6-1.8-2.8
				c-0.5-1.2-0.7-2.7-0.7-4.6c0-0.9,0.1-1.7,0.2-2.6c0.2-0.9,0.4-1.7,0.7-2.5c0.3-0.8,0.6-1.6,1-2.3c0.4-0.7,0.7-1.3,1.1-1.8
				c0.7-0.9,1.3-1.8,2.1-2.5c0.7-0.8,1.5-1.5,2.2-2.1c0.7-0.6,1.5-1,2.2-1.4c0.7-0.3,1.4-0.5,2-0.5c1,0,1.8,0.4,2.5,1.1
				c0.7,0.7,1.1,1.8,1.1,3.1c0,1.2-0.3,2.4-0.9,3.7c-0.6,1.3-1.4,2.5-2.3,3.7c-0.9,1.2-1.9,2.3-2.9,3.4c-1,1-2,1.9-2.8,2.6
				c0.5,1.1,1,2,1.7,2.5c0.7,0.5,1.4,0.8,2.1,0.8c1.1,0,2.1-0.4,3-1.1c0.9-0.7,1.7-1.6,2.4-2.7c0.7-1.1,1.3-2.2,1.9-3.3
				c0.5-1.2,1-2.2,1.5-3.1c0.2-0.3,0.3-0.5,0.5-0.7C279.7,110.4,279.9,110.3,280.1,110.3z M265.4,112.1c0,1.5,0.1,2.8,0.3,3.9
				c0.5-0.5,1-1.1,1.5-1.7c0.5-0.6,1-1.3,1.4-2c0.4-0.7,0.8-1.4,1-2.1c0.3-0.7,0.4-1.4,0.4-2c0-1-0.2-1.8-0.6-2.3
				c-0.4-0.6-0.9-0.8-1.3-0.8c-0.3,0-0.5,0.2-0.8,0.5c-0.3,0.3-0.6,0.8-0.9,1.4c-0.3,0.6-0.5,1.3-0.7,2.2
				C265.5,110,265.4,111,265.4,112.1z"/>
		</g>
		<g id="XMLID_321_">
			<g>
				<path id="XMLID_168_" class="st0" d="M160.2,143.3c-1.3,0-2.4,0.2-3.5,0.8c0,0.6,0.1,1.1,0.1,1.6c0,5.2-2.5,8-8.2,8
					c-2.7,0-3,0.3-3,1.2c0,3.5,14.5-2.7,14.5,9.2c0,3.8-3.5,7.3-10.4,7.3c-7.8,0-10.2-2.7-10.2-5.5c0-2.3,1.2-3.5,2.8-4.2
					c-1.6-0.8-2.8-2.4-2.8-4.2c0-2.9,1.7-4.1,3.9-4.8c-2-1.9-3.1-4.7-3.1-7.3c0-5,3.1-8.8,8.8-8.8c2.6,0,5.3,1.5,6.3,4
					c1-2.1,2.4-3.8,4.8-3.8V143.3z M149.6,165.4c3.3,0,4.6-0.6,4.6-1.8c0-1.3-1.3-1.8-4.6-1.8c-3.3,0-4.6,0.6-4.6,1.8
					C145,164.9,146.3,165.4,149.6,165.4z M150.4,145.1c0-2-0.7-3.2-1.8-3.2c-1.1,0-1.8,1.2-1.8,3.2s0.7,3.2,1.8,3.2
					C149.8,148.2,150.4,147,150.4,145.1z"/>
				<path id="XMLID_165_" class="st0" d="M162.9,144.4c0.6-5.6,4.2-7.9,9.1-7.9c6.4,0,9.2,3.8,9.2,10.4v9.6c0,2,0.1,4,0.3,5.7h-7
					c-0.3-1-0.5-2-0.4-3l-0.1-0.1c-1.7,2.3-2.8,3.7-6.3,3.7c-3.1,0-5.6-2.6-5.6-7.3c0-6.9,6.1-9.2,11.7-9.6v-1.6c0-1.2-0.7-2-2.2-2
					c-1.4,0-2.2,0.9-2.2,2H162.9z M173.9,150.7c-2.6,0.3-4.4,1.6-4.4,3.7c0,1.2,0.6,2,1.6,2c1,0,2.2-1,2.8-1.5V150.7z"/>
				<path id="XMLID_163_" class="st0" d="M185.2,162.2v-25.1h7.3v4h0.1c1.5-3.2,3.3-4.6,6.7-4.6v8.7c-0.8-0.2-1.6-0.5-2.7-0.5
					c-3.1,0-4.2,1.5-4.2,3.9v13.7H185.2z"/>
				<path id="XMLID_160_" class="st0" d="M201.8,144.4c0.6-5.6,4.2-7.9,9.1-7.9c6.4,0,9.2,3.8,9.2,10.4v9.6c0,2,0.1,4,0.3,5.7h-7
					c-0.3-1-0.5-2-0.4-3l-0.1-0.1c-1.7,2.3-2.8,3.7-6.3,3.7c-3.1,0-5.6-2.6-5.6-7.3c0-6.9,6.1-9.2,11.7-9.6v-1.6c0-1.2-0.7-2-2.2-2
					c-1.4,0-2.2,0.9-2.2,2H201.8z M212.8,150.7c-2.6,0.3-4.4,1.6-4.4,3.7c0,1.2,0.6,2,1.6,2c1,0,2.2-1,2.8-1.5V150.7z"/>
				<path id="XMLID_156_" class="st0" d="M243.6,143.3c-1.3,0-2.4,0.2-3.5,0.8c0.1,0.6,0.1,1.1,0.1,1.6c0,5.2-2.5,8-8.2,8
					c-2.7,0-3,0.3-3,1.2c0,3.5,14.5-2.7,14.5,9.2c0,3.8-3.5,7.3-10.4,7.3c-7.8,0-10.2-2.7-10.2-5.5c0-2.3,1.2-3.5,2.8-4.2
					c-1.6-0.8-2.8-2.4-2.8-4.2c0-2.9,1.7-4.1,3.9-4.8c-2-1.9-3.1-4.7-3.1-7.3c0-5,3.1-8.8,8.8-8.8c2.6,0,5.3,1.5,6.3,4
					c1-2.1,2.4-3.8,4.8-3.8V143.3z M232.9,165.4c3.3,0,4.6-0.6,4.6-1.8c0-1.3-1.3-1.8-4.6-1.8c-3.3,0-4.6,0.6-4.6,1.8
					C228.4,164.9,229.7,165.4,232.9,165.4z M233.8,145.1c0-2-0.7-3.2-1.8-3.2c-1.1,0-1.8,1.2-1.8,3.2s0.7,3.2,1.8,3.2
					C233.1,148.2,233.8,147,233.8,145.1z"/>
				<path id="XMLID_153_" class="st0" d="M252.9,151.9c0.1,3.6,0.8,4.6,2.6,4.6c1.4,0,2.1-0.8,2.3-2.5h6.9c0,6.3-4.4,8.8-9.1,8.8
					c-8.3,0-10-6.1-10-13.2c0-7.1,2.7-13.2,10-13.2c6,0,9.2,4.9,9.2,11.7v3.7H252.9z M257.5,146.8c0-3.4-0.4-4.4-2.4-4.4
					c-1.9,0-2.3,1-2.3,4.4H257.5z"/>
			</g>
		</g>
	</g>
	<rect x="58.7" y="35.4" class="st2" width="30.7" height="159.2"/>
	<path class="st3" d="M94.6,203.3H52.5V26.6h42.1V203.3z M80.7,58c0-2.4-1.4-3.6-2.5-4.1c0.9-0.4,2.3-1.8,2.3-3.8
		c0-3.1-2.1-5.2-5.7-5.2h-7.4v18.3H75C78.3,63.3,80.7,61.4,80.7,58z M76.8,50.3c0,1.3-0.9,2.1-2.4,2.1h-3.5v-4.2h3.5
		C76,48.1,76.8,49,76.8,50.3z M77.1,57.8c0,1.2-0.8,2.3-2.4,2.3h-3.7v-4.5h3.7C76.3,55.6,77.1,56.6,77.1,57.8z M80.5,78.7
		c0-3.2,0-5.5-1.8-7.3c-1.3-1.3-2.9-2-4.9-2c-2.1,0-3.7,0.7-5,2c-1.9,1.9-1.8,4.1-1.8,7.3c0,3.2-0.1,5.5,1.8,7.3c1.3,1.3,2.9,2,5,2
		c2.1,0,3.7-0.7,4.9-2C80.5,84.1,80.5,81.8,80.5,78.7z M76.9,78.7c0,3.5-0.2,4.4-0.9,5.2c-0.5,0.6-1.3,1-2.3,1c-1,0-1.8-0.4-2.3-1
		c-0.7-0.8-0.9-1.6-0.9-5.2c0-3.5,0.2-4.4,0.9-5.2c0.5-0.6,1.3-1,2.3-1c1,0,1.8,0.4,2.3,1C76.7,74.3,76.9,75.1,76.9,78.7z
		 M80.5,103.2c0-3.2,0-5.5-1.8-7.3c-1.3-1.3-2.9-2-4.9-2c-2.1,0-3.7,0.7-5,2c-1.9,1.9-1.8,4.1-1.8,7.3c0,3.2-0.1,5.5,1.8,7.3
		c1.3,1.3,2.9,2,5,2c2.1,0,3.7-0.7,4.9-2C80.5,108.6,80.5,106.4,80.5,103.2z M76.9,103.2c0,3.5-0.2,4.4-0.9,5.2
		c-0.5,0.6-1.3,1-2.3,1c-1,0-1.8-0.4-2.3-1c-0.7-0.8-0.9-1.6-0.9-5.2c0-3.5,0.2-4.4,0.9-5.2c0.5-0.6,1.3-1,2.3-1c1,0,1.8,0.4,2.3,1
		C76.7,98.8,76.9,99.7,76.9,103.2z M80.3,121.7v-3.2H67.1v3.2h4.8v15.1h3.6v-15.1H80.3z M72,158.8v2.7h3.4v-2.7H72z M72,143.1v13.4
		h3.3v-13.4H72z M80.9,184.8l-1.6-1.6c1.2-1.7,1.1-3.7,1.1-6.5c0-3.2,0-5.5-1.8-7.3c-1.3-1.3-2.9-2-4.9-2c-2.1,0-3.7,0.7-5,2
		c-1.9,1.9-1.8,4.1-1.8,7.3c0,3.2-0.1,5.5,1.8,7.3c1.3,1.3,2.9,2,5,2c1.4,0,2.7-0.3,3.7-1l1.6,1.6L80.9,184.8z M76.9,176.8
		c0,1.9-0.1,2.9-0.3,3.7l-1.4-1.4l-1.9,1.9l1.6,1.6c-0.3,0.2-0.7,0.3-1.2,0.3c-1,0-1.8-0.4-2.3-1c-0.7-0.8-0.9-1.6-0.9-5.2
		c0-3.5,0.2-4.4,0.9-5.2c0.5-0.6,1.3-1,2.3-1c1,0,1.8,0.4,2.3,1C76.7,172.4,76.9,173.3,76.9,176.8z"/>
</g>
</svg>
