<?xml version="1.0" encoding="utf-8"?>
<!-- Generator: Adobe Illustrator 23.0.3, SVG Export Plug-In . SVG Version: 6.00 Build 0)  -->
<svg version="1.1" id="Layer_1" xmlns="http://www.w3.org/2000/svg" xmlns:xlink="http://www.w3.org/1999/xlink" x="0px" y="0px"
	 viewBox="0 0 116.9 66.7" style="enable-background:new 0 0 116.9 66.7;" xml:space="preserve">
<style type="text/css">
	.st0{fill:#7F858F;}
	.st1{fill:#D2A962;}
</style>
<g>
	<path class="st0" d="M63.9,23.7c-1.3,0.5-2.4,0.7-3.6,0.7c-3.5,0-5.8-2.1-5.8-5.3c0-3.3,2.5-5.7,6.1-5.7c0.9,0,1.8,0.2,2.7,0.5
		c0.5,0.2,0.6,0.3,0.6,0.7v1.8h-0.4c-0.1-0.6-0.2-0.9-0.3-1.2c-0.4-0.8-1.5-1.3-2.8-1.3c-1.6,0-2.7,0.6-3.4,1.6
		c-0.5,0.8-0.8,1.9-0.8,3.1c0,3.2,1.7,5.2,4.3,5.2c0.8,0,1.3-0.2,1.6-0.5c0.2-0.3,0.3-0.7,0.3-1.4v-0.9c0-1,0-1.1-0.2-1.2
		c-0.1-0.2-0.4-0.2-1.4-0.3v-0.4h4.3v0.4c-0.8,0.1-1,0.1-1.1,0.3c-0.2,0.2-0.2,0.2-0.2,1.2V23.7z"/>
	<path class="st0" d="M73.3,20.4c0,2.3-1.7,4-4.1,4c-2.2,0-3.7-1.6-3.7-3.8c0-2.4,1.7-4.1,4-4.1C71.7,16.5,73.3,18.1,73.3,20.4z
		 M67,20.4c0,2.1,1,3.5,2.4,3.5c1.5,0,2.4-1.3,2.4-3.4c0-2.2-1-3.6-2.4-3.6C67.9,17,67,18.3,67,20.4z"/>
	<path class="st0" d="M75.8,22.3c0,1.4,0,1.4,0.9,1.5l0.3,0v0.4h-3.8v-0.4l0.3,0l0.3,0c0.6-0.1,0.7-0.2,0.7-1.4v-7.5
		c0-0.7-0.1-0.9-0.8-0.9h-0.4v-0.4c0.9,0,1.8-0.2,2.6-0.4V22.3z"/>
	<path class="st0" d="M82.6,14.8c0-0.7-0.1-0.9-0.8-0.9h-0.4v-0.4c1.1-0.1,1.8-0.2,2.6-0.5v9.2c0,0.8,0.1,1.2,0.5,1.2
		c0.1,0,0.2,0,0.5-0.1l0.1,0.4L83,24.4c-0.2-0.2-0.3-0.6-0.3-1.1l-1,0.6c-0.6,0.4-0.8,0.5-1.3,0.5c-1.9,0-3.4-1.7-3.4-3.9
		c0-2.4,1.6-4,4.1-4c0.6,0,1,0.1,1.6,0.3V14.8z M82.6,17.9c-0.4-0.6-1-0.9-1.8-0.9c-1.5,0-2.4,1.2-2.4,3.1c0,1.1,0.4,2.2,1,2.9
		c0.3,0.4,0.8,0.6,1.4,0.6c0.6,0,1.2-0.3,1.5-0.7c0.2-0.2,0.3-0.6,0.3-1.1V17.9z"/>
	<path class="st0" d="M86.6,20c0,2.2,1.1,3.5,2.9,3.5c0.6,0,1-0.1,1.8-0.5l0.2,0.5l-2,0.9c-0.2,0-0.3,0-0.4,0c-1.4,0-2.3-0.3-3-1.2
		c-0.6-0.8-1-1.9-1-2.9c0-1,0.3-2,0.9-2.7c0.6-0.7,1.5-1.2,2.6-1.2c1.3,0,2.3,0.7,2.7,1.9c0.2,0.5,0.2,0.9,0.2,1.7H86.6z M89.2,19.5
		c0.7,0,1-0.2,1-0.9c0-0.9-0.7-1.6-1.7-1.6c-0.8,0-1.5,0.5-1.8,1.4c-0.1,0.3-0.1,0.6-0.2,1.1H89.2z"/>
	<path class="st0" d="M94.4,17.8c0.8-0.9,1.8-1.3,3-1.3c1,0,1.6,0.3,2,1c0.2,0.4,0.2,0.8,0.2,1.6v3.2c0,0.9,0,1.1,0.1,1.2
		c0.1,0.2,0.2,0.2,1.1,0.3v0.4H97v-0.4c0.9-0.1,0.9-0.1,1-0.3c0.1-0.2,0.1-0.3,0.1-1.2v-2.8c0-1.6-0.4-2.2-1.7-2.2
		c-0.8,0-1.4,0.4-1.8,1.1c-0.2,0.5-0.3,1-0.3,2.1v1.8c0,0.9,0,1.1,0.1,1.2c0.1,0.2,0.2,0.2,1.1,0.3v0.4h-3.8v-0.4l0.3,0l0.3,0
		c0.6-0.1,0.7-0.2,0.7-1.4v-4.1c0-0.6-0.2-0.7-0.8-0.7h-0.1h0h-0.4v-0.4c1,0,1.9-0.3,2.6-0.6V17.8z"/>
	<path class="st0" d="M65.8,32.3c0,1.5-0.7,3-1.8,4.1c-1.1,1-2.4,1.5-3.9,1.5c-2.9,0-5.1-2.3-5.1-5.3c0-3.1,2.5-5.6,5.6-5.6
		C63.5,26.9,65.8,29.2,65.8,32.3z M56.7,32c0,3.1,1.6,5.4,3.8,5.4c2.2,0,3.6-1.9,3.6-4.9c0-3-1.5-5-3.8-5
		C58.1,27.4,56.7,29.2,56.7,32z"/>
	<path class="st0" d="M69.4,37.5c-0.5,0.3-0.7,0.4-1.1,0.4c-1.2,0-2-0.8-2-2c0-0.8,0.4-1.4,1.2-1.9c0.4-0.2,0.7-0.4,1.5-0.6l1.6-0.6
		c0-1.5-0.4-2.2-1.3-2.2c-0.6,0-1,0.4-1.4,1.1c-0.2,0.3-0.2,0.4-0.3,0.4c0,0,0,0-0.1,0L67,31.8c-0.1,0-0.1-0.1-0.1-0.2v0l0.2-0.8
		c0.1-0.3,0.1-0.3,0.4-0.4c0.6-0.3,1.3-0.4,2-0.4c1.8,0,2.5,0.7,2.5,2.4v3.4c0,0.9,0.1,1.2,0.5,1.2c0.1,0,0.3,0,0.5-0.1l0.1,0.4
		l-2.2,0.7c-0.2-0.4-0.3-0.8-0.3-1.2L69.4,37.5z M70.6,33.2c-1.4,0.5-1.6,0.6-2,0.9c-0.6,0.4-0.9,0.9-0.9,1.5c0,0.8,0.5,1.3,1.2,1.3
		c1.1,0,1.6-0.9,1.6-2.5V33.2z"/>
	<path class="st0" d="M75.9,33.2L75.9,33.2c0.4,0,0.7-0.1,1.4-0.8c1.1-0.9,1.5-1.4,1.5-1.6c0-0.3-0.2-0.4-0.8-0.4v-0.4h2.7v0.4
		c-0.4,0-0.5,0.1-0.8,0.3l-0.3,0.3c-0.2,0.2-0.4,0.4-0.6,0.5c-0.1,0.1-0.2,0.2-0.3,0.3l-1.4,1.3l1.4,1.6c1.6,1.8,1.9,2.2,2.6,2.7
		v0.2h-1.9l-3.4-4.2v2.3c0,1.4,0,1.4,0.9,1.5l0.3,0v0.4h-3.8v-0.4l0.3,0l0.3,0c0.6-0.1,0.7-0.2,0.7-1.4v-7.5c0-0.7-0.1-0.9-0.8-0.9
		h-0.4V27c1.1-0.1,1.8-0.2,2.6-0.5V33.2z"/>
	<path class="st0" d="M60.4,49.2c0,1.4,0,1.4,1.3,1.5v0.4h-4v-0.4c1.3-0.1,1.3-0.1,1.3-1.5V41h-1.4c-0.8,0-1.2,0.3-1.6,0.9
		c-0.1,0.2-0.2,0.4-0.5,0.9h-0.4l0.4-2.3h8.4l0.4,2.3h-0.4c-0.3-0.6-0.4-0.7-0.5-0.9c-0.4-0.6-0.9-0.9-1.6-0.9h-1.4V49.2z"/>
	<path class="st0" d="M66.5,44c0.5-0.5,0.6-0.6,0.9-0.6c0.2,0,0.4,0.1,0.6,0.5l0.4,0.7c0,0.1,0,0.1,0,0.1c0,0,0,0.1-0.1,0.2
		l-0.4,0.3c0,0-0.1,0-0.1,0c0,0-0.1,0-0.1,0l-0.6-0.3c-0.2-0.1-0.2-0.1-0.4-0.1c-0.4,0-0.7,0.2-0.8,0.5c-0.1,0.3-0.2,0.8-0.2,1.6
		v2.4c0,0.9,0,1.1,0.1,1.2c0.2,0.2,0.3,0.2,1.4,0.3v0.4h-4.1v-0.4c0.9-0.1,0.9-0.1,1.1-0.3c0.1-0.2,0.1-0.3,0.1-1.2v-4.1
		c0-0.6-0.2-0.7-0.8-0.7h-0.1h0h-0.4V44c1,0,1.9-0.3,2.6-0.6v1.4L66.5,44z"/>
	<path class="st0" d="M71.5,48.2c0,0.8,0.1,1.2,0.3,1.6c0.2,0.4,0.7,0.6,1.4,0.6c0.8,0,1.4-0.4,1.7-1c0.2-0.4,0.3-1.2,0.3-2v-2.3
		c0-0.6-0.2-0.7-0.8-0.7h-0.1h0h-0.4V44c1,0,1.9-0.3,2.6-0.6v5.8c0,0.9,0.1,1.2,0.5,1.2c0.1,0,0.3,0,0.5-0.1l0.1,0.4l-2.2,0.7
		c-0.2-0.2-0.4-0.7-0.4-1.2l-1.3,0.8c-0.5,0.3-0.8,0.4-1.3,0.4c-1.7,0-2.3-0.8-2.3-3v-3.2c0-0.6-0.2-0.7-0.8-0.7h-0.1h0h-0.4V44
		c1,0,1.9-0.3,2.6-0.6V48.2z"/>
	<path class="st0" d="M78,49.2h0.4c0,0.5,0.1,0.7,0.2,0.9c0.3,0.4,0.8,0.7,1.4,0.7c0.8,0,1.4-0.6,1.4-1.3c0-0.7-0.3-1-1.7-2
		c-1.4-0.9-1.7-1.4-1.7-2.1c0-1.2,1-2,2.6-2c0.6,0,1.1,0.1,1.7,0.3v1.5h-0.4c0-0.3-0.1-0.4-0.2-0.6c-0.2-0.4-0.7-0.7-1.2-0.7
		c-0.7,0-1.2,0.4-1.2,1c0,0.2,0.1,0.5,0.2,0.7c0.2,0.3,0.2,0.3,1.6,1.3c1.2,0.8,1.6,1.4,1.6,2.2c0,1.4-1.1,2.3-2.8,2.3
		c-0.8,0-1.3-0.1-2-0.4V49.2z"/>
	<path class="st0" d="M88.2,44.3l-0.6,0.3H86v4c0,1.3,0.3,1.8,1.2,1.8c0.3,0,0.6-0.1,1-0.2l0.1,0.4l-1.8,0.7c-0.8,0-1.1-0.2-1.4-0.5
		c-0.3-0.4-0.5-0.9-0.5-1.9v-4.3h-1.2v-0.7h1.2v-1.6l1-0.8H86v2.4h2.3V44.3z"/>
	<g>
		<path class="st1" d="M50.5,35.3c-0.4-0.6-1.7-0.6-2.3-0.6c-0.5,0-2,0.2-2.4-0.2c-0.7-0.7,3-2.4,3.4-2.8c0.6-0.4,0.9-1.1,0.2-1.6
			c-0.6-0.5-1.5-0.3-2.1-0.4c-0.7-0.1-1-0.2-0.9-0.9c0.1-1,0.4-1.9,0.4-2.9c0-1-0.6-2-1.8-1.5c-1.2,0.5-1.6,1.8-2.6,2.5
			c-2.3-6-7.5-10.7-13.8-12.3c-6.4-1.6-13.3,0.1-18.1,4.5c-2.4,2.2-4.2,5.1-5.2,8.2c2.4-5.8,7.5-10.2,13.7-11.4
			c6.6-1.3,13.5,1.5,17.5,6.8c2.9,3.9,3.1,6.9,2.7,8.1c-0.5,1.5-1.6,1.2-2.5,0.2c-0.6-0.7-1-1.9-2-2c-2.2-0.2-2.2,3-1.8,4.4
			c0.3,1.1,0.6,2.2,0.9,3.3c0.1,0.4,0.6,1.6,0,1.9c-1,0.4-1.9-1.9-3-1.8c-1.1,0.1-0.8,2.6-0.6,3.2c0.3,1.7,1.1,3.1,0.6,4.8
			c-0.2,0.7-0.6,1.5-1.1,2c4-1.1,6.6-3.8,8.5-7.3c1.3-2.5,2.6-5.1,3.7-7.7c-0.5,2.4-1.5,4.8-2.5,7.1c-1.2,2.8-2.7,5.2-5,7.1
			c-4.9,4-11.8,4.4-17.1,0.9c-1.4-0.9-3.9-3-6-7.2c1.4,6,6.3,10.8,12.4,11.7c3.1,0.5,6.2,0,9-1.6c0.7-0.4,1.3-1,2.1-0.9
			c0.7,0.1,4.3,0.8,4.8,0.2c0.5-0.6-0.2-1.2-0.6-1.6c-0.2-0.2-1.2-0.9-1.2-1.3c0.1-0.7,1.7-0.3,2.1-0.2c1.2,0.3,2.2,0.6,3.4,0.2
			c1-0.3,4.7-2,3.4-3.5c-0.9-1.1-2.7-0.4-3.7-0.9c-0.7-0.4,0.1-0.8,0.5-1c1.1-0.5,2.3-0.8,3.4-1.1c1.2-0.4,2.6-0.7,3.4-1.8
			C51,37.2,51.1,36.1,50.5,35.3z"/>
		<path class="st1" d="M22.6,41.4c1.4,1.2,3,2.4,4.4,3.5c-0.3-0.6-0.7-1.1-0.8-1.6c-0.1-0.7,0.2-1.5,0.3-2.2
			c0.1-0.7,0.7-3.2-0.7-2.4c-0.5,0.3-1.3,1.2-1.9,1.2c-0.6,0-0.5-0.6-0.4-1c0.4-1.3,1.3-2.6,1.1-4c-0.2-1.6-1.6-1.3-2.4-0.5
			c-0.3,0.2-0.8,1-1.1,1.1c-0.5,0.1-0.7-0.8-0.8-1.2c-0.3-0.9-0.4-1.8-0.7-2.7c-0.1-0.4-0.4-1.7-1-1.8c-1.1-0.1-1.3,3.6-2.3,2.1
			c-0.4-0.6-1.1-2.8-2-2.2c-0.6,0.3-0.6,1.3-0.4,1.9c0.1,0.3,0.7,1.4,0.5,1.7c-0.4,0.6-2.8-0.3-2,1.3c0.3,0.6,1,1.1,1.5,1.6
			c0.4,0.3,1.4,0.9,1.5,1.4c0.2,0.8-5.1,1.7-2.2,2.8c1.3,0.5,2.8,0.5,4.2,0.6c0.6,0.1,2.5,0.3,1.2,1c-0.4,0.2-1.3,0.3-1.6,0.6
			c-0.4,0.5,0.5,0.7,0.8,0.7c0.8,0.2,1.7,0.1,2.5,0.1c0.3,0,1.4-0.2,1.6,0.3c0.2,0.4-0.7,1.1-0.8,1.4c-0.4,0.8,0.5,0.7,1.1,0.8
			c1.5,0.2,2.9,0.5,4.4,0.8c-2-1.8-3.8-3.7-5.6-5.7c-1.7-1.9-3.4-4.1-4.1-6.6C17.8,37.3,20.3,39.5,22.6,41.4z"/>
		<path class="st1" d="M9.5,40.5C7.2,32,12.4,23.6,20.7,21.1c4.1-1.2,7.2-1,8.5-1c-6.4-2.9-13.7-1.6-18.5,2.9
			c-5.4,4.9-7,13-3.8,19.7c1.9,3.9,5.2,6.9,9.2,8.5C15.4,50.4,11,47,9.5,40.5z"/>
	</g>
</g>
</svg>
