<?xml version="1.0" encoding="utf-8"?>
<!-- Generator: Adobe Illustrator 23.0.3, SVG Export Plug-In . SVG Version: 6.00 Build 0)  -->
<svg version="1.1" id="Layer_1" xmlns="http://www.w3.org/2000/svg" xmlns:xlink="http://www.w3.org/1999/xlink" x="0px" y="0px"
	 viewBox="0 0 116.9 66.7" style="enable-background:new 0 0 116.9 66.7;" xml:space="preserve">
<style type="text/css">
	.st0{fill:#D2A962;}
	.st1{fill:#7F858F;}
</style>
<g>
	<path class="st0" d="M50.4,35.4c-0.4-0.6-1.6-0.5-2.2-0.6c-0.5,0-1.9,0.2-2.3-0.2c-0.6-0.7,2.9-2.3,3.3-2.7c0.5-0.4,0.9-1,0.2-1.6
		C48.9,29.9,48,30,47.4,30c-0.7-0.1-0.9-0.2-0.8-0.9c0.1-0.9,0.4-1.9,0.4-2.8c0-1-0.6-1.9-1.8-1.5c-1.2,0.5-1.5,1.8-2.5,2.5
		c-2.3-5.8-7.3-10.4-13.4-11.9c-6.2-1.6-12.9,0.1-17.6,4.4c-2.3,2.2-4.1,5-5,8c2.3-5.6,7.3-9.9,13.3-11c6.4-1.2,13.1,1.4,17,6.6
		c2.9,3.8,3,6.7,2.6,7.9c-0.5,1.5-1.6,1.2-2.4,0.2c-0.6-0.7-0.9-1.9-2-2c-2.2-0.2-2.1,2.9-1.8,4.3c0.3,1.1,0.6,2.2,0.9,3.2
		c0.1,0.4,0.6,1.6,0,1.8c-1,0.4-1.9-1.9-2.9-1.8c-1.1,0.1-0.7,2.5-0.6,3.1c0.3,1.7,1.1,3,0.6,4.7c-0.2,0.7-0.5,1.4-1.1,2
		c3.9-1.1,6.4-3.7,8.2-7.1c1.3-2.4,2.5-5,3.6-7.4c-0.4,2.4-1.5,4.7-2.4,6.9c-1.2,2.7-2.6,5-4.9,6.9c-4.8,3.9-11.5,4.3-16.6,0.8
		c-1.4-0.9-3.8-2.9-5.8-7c1.3,5.8,6.1,10.5,12.1,11.3c3,0.4,6.1,0,8.7-1.5c0.7-0.4,1.3-1,2-0.9c0.7,0.1,4.2,0.8,4.7,0.2
		c0.4-0.5-0.2-1.2-0.6-1.5c-0.2-0.2-1.2-0.8-1.1-1.2c0.1-0.7,1.6-0.3,2-0.2c1.2,0.3,2.1,0.6,3.3,0.2c1-0.3,4.6-1.9,3.3-3.4
		c-0.8-1-2.6-0.4-3.6-0.9c-0.7-0.4,0.1-0.8,0.5-1c1-0.5,2.2-0.8,3.3-1.1c1.1-0.4,2.5-0.7,3.3-1.7C51,37.3,51,36.2,50.4,35.4"/>
	<path class="st0" d="M23.3,41.4c1.4,1.2,2.9,2.3,4.3,3.4c-0.3-0.6-0.7-1-0.8-1.6c-0.1-0.7,0.2-1.4,0.3-2.1c0.1-0.7,0.7-3.1-0.7-2.3
		c-0.5,0.3-1.2,1.2-1.9,1.2c-0.6,0-0.5-0.6-0.4-1c0.4-1.3,1.3-2.5,1.1-3.9c-0.2-1.6-1.5-1.3-2.4-0.5c-0.2,0.2-0.7,1-1.1,1
		c-0.5,0.1-0.7-0.8-0.8-1.1c-0.3-0.9-0.4-1.8-0.7-2.6c-0.1-0.4-0.3-1.7-0.9-1.7c-1-0.1-1.3,3.5-2.3,2c-0.4-0.5-1-2.7-2-2.2
		c-0.6,0.3-0.5,1.3-0.4,1.9c0.1,0.3,0.7,1.4,0.5,1.7c-0.4,0.6-2.7-0.3-2,1.3c0.3,0.6,0.9,1.1,1.4,1.5c0.4,0.3,1.4,0.9,1.5,1.4
		c0.2,0.8-4.9,1.6-2.2,2.7c1.3,0.5,2.7,0.5,4.1,0.6c0.5,0.1,2.4,0.3,1.1,1c-0.4,0.2-1.3,0.3-1.6,0.6c-0.4,0.5,0.5,0.6,0.8,0.7
		c0.8,0.1,1.6,0.1,2.4,0.1c0.3,0,1.3-0.1,1.5,0.2c0.2,0.4-0.7,1.1-0.8,1.4c-0.4,0.8,0.5,0.7,1,0.7c1.4,0.2,2.8,0.5,4.2,0.8
		c-1.9-1.8-3.7-3.6-5.4-5.6c-1.6-1.9-3.3-4-4-6.4C18.7,37.4,21.2,39.5,23.3,41.4"/>
	<path class="st0" d="M10.7,40.5c-2.3-8.3,2.8-16.4,10.8-18.8c4-1.2,7-1,8.2-1c-6.2-2.8-13.3-1.6-18,2.8C6.5,28.3,4.9,36.1,8,42.6
		c1.8,3.8,5,6.7,8.9,8.2C16.3,50.1,12.2,46.8,10.7,40.5"/>
	<path class="st1" d="M63.8,24.2c-1.3,0.5-2.3,0.7-3.6,0.7c-3.5,0-5.7-2-5.7-5.2c0-3.3,2.5-5.6,6-5.6c0.9,0,1.7,0.2,2.7,0.5
		c0.5,0.2,0.6,0.3,0.6,0.7v1.8h-0.4c-0.1-0.6-0.2-0.9-0.3-1.2c-0.4-0.8-1.5-1.3-2.8-1.3c-1.5,0-2.7,0.5-3.3,1.6
		c-0.5,0.8-0.8,1.9-0.8,3.1c0,3.1,1.7,5.1,4.2,5.1c0.7,0,1.3-0.2,1.6-0.5c0.2-0.3,0.3-0.7,0.3-1.4v-0.9c0-1,0-1-0.2-1.2
		c-0.1-0.2-0.4-0.2-1.4-0.3v-0.4H65v0.4c-0.7,0.1-1,0.1-1.1,0.3c-0.2,0.2-0.2,0.2-0.2,1.2V24.2"/>
	<path class="st1" d="M72.8,20.9c0,2.3-1.7,4-4,4c-2.1,0-3.7-1.6-3.7-3.8c0-2.3,1.7-4,4-4C71.3,17.1,72.8,18.7,72.8,20.9 M66.6,21
		c0,2.1,1,3.5,2.4,3.5c1.5,0,2.3-1.3,2.3-3.3c0-2.1-0.9-3.5-2.4-3.5C67.5,17.6,66.6,18.9,66.6,21z"/>
	<path class="st1" d="M75.1,22.9c0,1.3,0,1.3,0.9,1.4l0.3,0v0.4h-3.7v-0.4l0.3,0l0.3,0c0.6-0.1,0.7-0.2,0.7-1.4v-7.4
		c0-0.7-0.1-0.9-0.8-0.9h-0.4v-0.4c0.9,0,1.8-0.2,2.5-0.4V22.9"/>
	<path class="st1" d="M81.7,15.5c0-0.7-0.1-0.9-0.8-0.9h-0.4v-0.4c1.1-0.1,1.8-0.2,2.5-0.5v9.1c0,0.8,0.1,1.1,0.5,1.1
		c0.1,0,0.2,0,0.5-0.1l0.1,0.4L82,24.9c-0.2-0.2-0.3-0.6-0.3-1l-1,0.6c-0.6,0.4-0.8,0.5-1.3,0.5c-1.9,0-3.3-1.7-3.3-3.9
		c0-2.4,1.6-4,4-4c0.6,0,0.9,0.1,1.6,0.3V15.5 M81.7,18.5c-0.4-0.6-1-0.9-1.7-0.9c-1.4,0-2.4,1.2-2.4,3.1c0,1.1,0.4,2.2,1,2.9
		c0.3,0.4,0.8,0.6,1.3,0.6c0.6,0,1.2-0.3,1.5-0.7c0.2-0.2,0.3-0.6,0.3-1.1V18.5z"/>
	<path class="st1" d="M85.3,20.6c0,2.2,1.1,3.5,2.9,3.5c0.5,0,1-0.1,1.7-0.5l0.2,0.5l-1.9,0.9c-0.2,0-0.3,0-0.4,0
		c-1.4,0-2.3-0.3-2.9-1.1c-0.6-0.8-1-1.9-1-2.9c0-1,0.3-1.9,0.9-2.7c0.6-0.7,1.5-1.1,2.6-1.1c1.3,0,2.3,0.7,2.6,1.9
		c0.2,0.5,0.2,0.9,0.2,1.7H85.3 M88,20.1c0.7,0,0.9-0.2,0.9-0.9c0-0.9-0.7-1.6-1.7-1.6c-0.8,0-1.5,0.5-1.7,1.4
		c-0.1,0.3-0.1,0.6-0.2,1.1H88z"/>
	<path class="st1" d="M92.9,18.4c0.8-0.9,1.8-1.3,2.9-1.3c1,0,1.6,0.3,1.9,1c0.2,0.4,0.2,0.8,0.2,1.6v3.1c0,0.9,0,1,0.1,1.2
		c0.1,0.2,0.2,0.2,1.1,0.3v0.4h-3.7v-0.4c0.9-0.1,0.9-0.1,1-0.3c0.1-0.2,0.1-0.3,0.1-1.2v-2.7c0-1.6-0.4-2.2-1.7-2.2
		c-0.8,0-1.4,0.4-1.8,1.1c-0.2,0.5-0.3,1-0.3,2v1.8c0,0.9,0,1,0.1,1.2c0.1,0.2,0.2,0.2,1.1,0.3v0.4h-3.7v-0.4l0.3,0l0.3,0
		c0.6-0.1,0.7-0.2,0.7-1.4v-4c0-0.5-0.2-0.7-0.8-0.7h-0.4v-0.4c1,0,1.9-0.3,2.5-0.6V18.4"/>
	<path class="st1" d="M65.2,32.5c0,1.5-0.7,3-1.8,4.1c-1,1-2.4,1.5-3.9,1.5c-2.8,0-5.1-2.3-5.1-5.2c0-3.1,2.5-5.6,5.5-5.6
		C63,27.2,65.2,29.5,65.2,32.5 M56.2,32.2c0,3,1.6,5.3,3.8,5.3c2.2,0,3.5-1.9,3.5-4.8c0-3-1.5-5-3.8-5
		C57.6,27.7,56.2,29.5,56.2,32.2z"/>
	<path class="st1" d="M68.6,37.6c-0.5,0.3-0.7,0.4-1.1,0.4c-1.2,0-1.9-0.8-1.9-2c0-0.8,0.4-1.4,1.1-1.9c0.3-0.2,0.7-0.4,1.4-0.6
		l1.6-0.6c0-1.5-0.4-2.2-1.3-2.2c-0.6,0-1,0.3-1.4,1.1c-0.2,0.3-0.2,0.4-0.3,0.4l-0.1,0L66.2,32c-0.1,0-0.1-0.1-0.1-0.2v0l0.2-0.8
		c0.1-0.3,0.1-0.3,0.4-0.4c0.5-0.3,1.3-0.4,1.9-0.4c1.7,0,2.5,0.7,2.5,2.4v3.3c0,0.9,0.1,1.1,0.5,1.1c0.1,0,0.3,0,0.5-0.1l0.1,0.4
		L70.1,38c-0.2-0.4-0.3-0.8-0.3-1.2L68.6,37.6 M69.7,33.5c-1.4,0.5-1.6,0.6-2,0.9c-0.6,0.4-0.9,0.9-0.9,1.5c0,0.8,0.5,1.3,1.2,1.3
		c1.1,0,1.6-0.9,1.6-2.5V33.5z"/>
	<path class="st1" d="M74.8,33.4L74.8,33.4c0.4,0,0.7-0.1,1.4-0.7c1-0.9,1.5-1.3,1.5-1.5c0-0.3-0.2-0.4-0.8-0.4v-0.4h2.6v0.4
		c-0.4,0-0.5,0.1-0.8,0.3l-0.3,0.3c-0.2,0.2-0.4,0.3-0.6,0.5c-0.1,0.1-0.2,0.2-0.3,0.3l-1.4,1.3l1.4,1.6c1.5,1.7,1.9,2.1,2.5,2.7
		v0.2h-1.9l-3.4-4.1V36c0,1.3,0,1.3,0.9,1.4l0.3,0v0.4h-3.7v-0.4l0.3,0l0.3,0c0.6-0.1,0.7-0.2,0.7-1.4v-7.4c0-0.7-0.1-0.9-0.8-0.9
		h-0.4v-0.4c1-0.1,1.8-0.2,2.5-0.5V33.4"/>
	<path class="st1" d="M64.1,48.3l-0.4,1.9c-0.1,0.3-0.1,0.3-0.5,0.5c-0.9,0.3-2,0.5-3,0.5c-3.5,0-5.7-2-5.7-5.2c0-3.3,2.5-5.6,6-5.6
		c0.9,0,1.8,0.2,2.6,0.5c0.4,0.2,0.6,0.3,0.6,0.7v1.8h-0.4c-0.1-0.6-0.2-0.9-0.3-1.2c-0.4-0.8-1.5-1.3-2.7-1.3
		c-2.6,0-4.1,1.8-4.1,4.8c0,3.1,1.6,5,4.2,5c1.2,0,2-0.4,2.7-1.2c0.2-0.3,0.4-0.5,0.6-1.1H64.1"/>
	<path class="st1" d="M67.3,50.7c-0.5,0.3-0.7,0.4-1.1,0.4c-1.2,0-1.9-0.8-1.9-2c0-0.8,0.4-1.4,1.1-1.9c0.3-0.2,0.7-0.4,1.4-0.6
		l1.6-0.6c0-1.5-0.4-2.2-1.3-2.2c-0.6,0-1,0.3-1.4,1.1c-0.2,0.3-0.2,0.4-0.3,0.4l-0.1,0l-0.5-0.1c-0.1,0-0.1-0.1-0.1-0.2v0l0.2-0.8
		c0.1-0.3,0.1-0.3,0.4-0.4c0.5-0.3,1.3-0.4,1.9-0.4c1.7,0,2.5,0.7,2.5,2.4V49c0,0.9,0.1,1.1,0.5,1.1c0.1,0,0.3,0,0.5-0.1l0.1,0.4
		l-2.1,0.7c-0.2-0.4-0.3-0.8-0.3-1.2L67.3,50.7 M68.4,46.6c-1.4,0.5-1.6,0.6-2,0.9c-0.6,0.4-0.9,0.9-0.9,1.5c0,0.8,0.5,1.3,1.2,1.3
		c1.1,0,1.6-0.9,1.6-2.5V46.6z"/>
	<path class="st1" d="M72.7,52.8c0,0.9,0,1.1,0.1,1.2c0.1,0.2,0.4,0.2,1.4,0.3v0.4h-4.1v-0.4c0.8-0.1,0.9-0.1,1.1-0.3
		c0.1-0.2,0.1-0.3,0.1-1.2V45c0-0.5-0.2-0.7-0.8-0.7h-0.4v-0.4c1,0,1.9-0.3,2.5-0.6v1.2c0.7-0.9,1.5-1.2,2.5-1.2c1.8,0,3,1.4,3,3.5
		c0,2.5-1.6,4.3-3.9,4.3c-0.6,0-1-0.1-1.7-0.3V52.8 M72.7,49.9c0.6,0.5,1.1,0.7,1.7,0.7c1.5,0,2.4-1.3,2.4-3.5c0-2-0.8-3.1-2.2-3.1
		c-0.9,0-1.5,0.5-1.7,1.5c-0.1,0.4-0.1,1-0.1,1.8V49.9z"/>
	<path class="st1" d="M80.7,49.1c0,1.3,0,1.3,0.9,1.4c0,0,0.2,0,0.3,0v0.4h-3.8v-0.4l0.3,0l0.3,0c0.6-0.1,0.7-0.2,0.7-1.4v-4
		c0-0.3,0-0.4-0.1-0.5c-0.1-0.1-0.4-0.2-0.7-0.2h-0.4v-0.4c1,0,1.9-0.3,2.6-0.6V49.1 M80.7,41.5c0,0.5-0.4,0.9-0.9,0.9
		c-0.5,0-0.9-0.4-0.9-0.9c0-0.5,0.4-0.9,0.9-0.9C80.3,40.6,80.7,41,80.7,41.5z"/>
	<path class="st1" d="M86.1,44.2l-0.6,0.3h-1.7v4c0,1.3,0.3,1.8,1.2,1.8c0.3,0,0.6-0.1,1-0.2l0.1,0.4l-1.7,0.7
		c-0.8,0-1.1-0.2-1.4-0.5c-0.3-0.4-0.5-0.9-0.5-1.9v-4.3h-1.2v-0.7h1.2v-1.5l0.9-0.8h0.4v2.4h2.3V44.2"/>
	<path class="st1" d="M89,50.7c-0.5,0.3-0.7,0.4-1.1,0.4c-1.2,0-1.9-0.8-1.9-2c0-0.8,0.4-1.4,1.1-1.9c0.3-0.2,0.7-0.4,1.4-0.6
		l1.6-0.6c0-1.5-0.4-2.2-1.3-2.2c-0.6,0-1,0.3-1.4,1.1c-0.2,0.3-0.2,0.4-0.3,0.4l-0.1,0l-0.5-0.1c-0.1,0-0.1-0.1-0.1-0.2v0l0.2-0.8
		c0.1-0.3,0.1-0.3,0.4-0.4c0.5-0.3,1.3-0.4,1.9-0.4c1.7,0,2.5,0.7,2.5,2.4V49c0,0.9,0.1,1.1,0.5,1.1c0.1,0,0.3,0,0.5-0.1l0.1,0.4
		l-2.1,0.7c-0.2-0.4-0.3-0.8-0.3-1.2L89,50.7 M90.2,46.6c-1.4,0.5-1.6,0.6-2,0.9c-0.6,0.4-0.9,0.9-0.9,1.5c0,0.8,0.5,1.3,1.2,1.3
		c1.1,0,1.6-0.9,1.6-2.5V46.6z"/>
	<path class="st1" d="M95.2,49.1c0,1.3,0,1.3,0.9,1.4l0.3,0v0.4h-3.7v-0.4l0.3,0l0.3,0c0.6-0.1,0.7-0.2,0.7-1.4v-7.4
		c0-0.7-0.1-0.9-0.8-0.9h-0.4v-0.4c0.9,0,1.8-0.2,2.5-0.4V49.1"/>
	<path class="st0" d="M50.4,35.4c-0.4-0.6-1.6-0.5-2.2-0.6c-0.5,0-1.9,0.2-2.3-0.2c-0.6-0.7,2.9-2.3,3.3-2.7c0.5-0.4,0.9-1,0.2-1.6
		C48.9,29.9,48,30,47.4,30c-0.7-0.1-0.9-0.2-0.8-0.9c0.1-0.9,0.4-1.9,0.4-2.8c0-1-0.6-1.9-1.8-1.5c-1.2,0.5-1.5,1.8-2.5,2.5
		c-2.3-5.8-7.3-10.4-13.4-11.9c-6.2-1.6-12.9,0.1-17.6,4.4c-2.3,2.2-4.1,5-5,8c2.3-5.6,7.3-9.9,13.3-11c6.4-1.2,13.1,1.4,17,6.6
		c2.9,3.8,3,6.7,2.6,7.9c-0.5,1.5-1.6,1.2-2.4,0.2c-0.6-0.7-0.9-1.9-2-2c-2.2-0.2-2.1,2.9-1.8,4.3c0.3,1.1,0.6,2.2,0.9,3.2
		c0.1,0.4,0.6,1.6,0,1.8c-1,0.4-1.9-1.9-2.9-1.8c-1.1,0.1-0.7,2.5-0.6,3.1c0.3,1.7,1.1,3,0.6,4.7c-0.2,0.7-0.5,1.4-1.1,2
		c3.9-1.1,6.4-3.7,8.2-7.1c1.3-2.4,2.5-5,3.6-7.4c-0.4,2.4-1.5,4.7-2.4,6.9c-1.2,2.7-2.6,5-4.9,6.9c-4.8,3.9-11.5,4.3-16.6,0.8
		c-1.4-0.9-3.8-2.9-5.8-7c1.3,5.8,6.1,10.5,12.1,11.3c3,0.4,6.1,0,8.7-1.5c0.7-0.4,1.3-1,2-0.9c0.7,0.1,4.2,0.8,4.7,0.2
		c0.4-0.5-0.2-1.2-0.6-1.5c-0.2-0.2-1.2-0.8-1.1-1.2c0.1-0.7,1.6-0.3,2-0.2c1.2,0.3,2.1,0.6,3.3,0.2c1-0.3,4.6-1.9,3.3-3.4
		c-0.8-1-2.6-0.4-3.6-0.9c-0.7-0.4,0.1-0.8,0.5-1c1-0.5,2.2-0.8,3.3-1.1c1.1-0.4,2.5-0.7,3.3-1.7C51,37.3,51,36.2,50.4,35.4"/>
	<path class="st0" d="M23.3,41.4c1.4,1.2,2.9,2.3,4.3,3.4c-0.3-0.6-0.7-1-0.8-1.6c-0.1-0.7,0.2-1.4,0.3-2.1c0.1-0.7,0.7-3.1-0.7-2.3
		c-0.5,0.3-1.2,1.2-1.9,1.2c-0.6,0-0.5-0.6-0.4-1c0.4-1.3,1.3-2.5,1.1-3.9c-0.2-1.6-1.5-1.3-2.4-0.5c-0.2,0.2-0.7,1-1.1,1
		c-0.5,0.1-0.7-0.8-0.8-1.1c-0.3-0.9-0.4-1.8-0.7-2.6c-0.1-0.4-0.3-1.7-0.9-1.7c-1-0.1-1.3,3.5-2.3,2c-0.4-0.5-1-2.7-2-2.2
		c-0.6,0.3-0.5,1.3-0.4,1.9c0.1,0.3,0.7,1.4,0.5,1.7c-0.4,0.6-2.7-0.3-2,1.3c0.3,0.6,0.9,1.1,1.4,1.5c0.4,0.3,1.4,0.9,1.5,1.4
		c0.2,0.8-4.9,1.6-2.2,2.7c1.3,0.5,2.7,0.5,4.1,0.6c0.5,0.1,2.4,0.3,1.1,1c-0.4,0.2-1.3,0.3-1.6,0.6c-0.4,0.5,0.5,0.6,0.8,0.7
		c0.8,0.1,1.6,0.1,2.4,0.1c0.3,0,1.3-0.1,1.5,0.2c0.2,0.4-0.7,1.1-0.8,1.4c-0.4,0.8,0.5,0.7,1,0.7c1.4,0.2,2.8,0.5,4.2,0.8
		c-1.9-1.8-3.7-3.6-5.4-5.6c-1.6-1.9-3.3-4-4-6.4C18.7,37.4,21.2,39.5,23.3,41.4"/>
	<path class="st0" d="M10.7,40.5c-2.3-8.3,2.8-16.4,10.8-18.8c4-1.2,7-1,8.2-1c-6.2-2.8-13.3-1.6-18,2.8C6.5,28.3,4.9,36.1,8,42.6
		c1.8,3.8,5,6.7,8.9,8.2C16.3,50.1,12.2,46.8,10.7,40.5"/>
	<path class="st1" d="M63.8,24.2c-1.3,0.5-2.3,0.7-3.6,0.7c-3.5,0-5.7-2-5.7-5.2c0-3.3,2.5-5.6,6-5.6c0.9,0,1.7,0.2,2.7,0.5
		c0.5,0.2,0.6,0.3,0.6,0.7v1.8h-0.4c-0.1-0.6-0.2-0.9-0.3-1.2c-0.4-0.8-1.5-1.3-2.8-1.3c-1.5,0-2.7,0.5-3.3,1.6
		c-0.5,0.8-0.8,1.9-0.8,3.1c0,3.1,1.7,5.1,4.2,5.1c0.7,0,1.3-0.2,1.6-0.5c0.2-0.3,0.3-0.7,0.3-1.4v-0.9c0-1,0-1-0.2-1.2
		c-0.1-0.2-0.4-0.2-1.4-0.3v-0.4H65v0.4c-0.7,0.1-1,0.1-1.1,0.3c-0.2,0.2-0.2,0.2-0.2,1.2V24.2"/>
	<path class="st1" d="M72.8,20.9c0,2.3-1.7,4-4,4c-2.1,0-3.7-1.6-3.7-3.8c0-2.3,1.7-4,4-4C71.3,17.1,72.8,18.7,72.8,20.9 M66.6,21
		c0,2.1,1,3.5,2.4,3.5c1.5,0,2.3-1.3,2.3-3.3c0-2.1-0.9-3.5-2.4-3.5C67.5,17.6,66.6,18.9,66.6,21z"/>
	<path class="st1" d="M75.1,22.9c0,1.3,0,1.3,0.9,1.4l0.3,0v0.4h-3.7v-0.4l0.3,0l0.3,0c0.6-0.1,0.7-0.2,0.7-1.4v-7.4
		c0-0.7-0.1-0.9-0.8-0.9h-0.4v-0.4c0.9,0,1.8-0.2,2.5-0.4V22.9"/>
	<path class="st1" d="M81.7,15.5c0-0.7-0.1-0.9-0.8-0.9h-0.4v-0.4c1.1-0.1,1.8-0.2,2.5-0.5v9.1c0,0.8,0.1,1.1,0.5,1.1
		c0.1,0,0.2,0,0.5-0.1l0.1,0.4L82,24.9c-0.2-0.2-0.3-0.6-0.3-1l-1,0.6c-0.6,0.4-0.8,0.5-1.3,0.5c-1.9,0-3.3-1.7-3.3-3.9
		c0-2.4,1.6-4,4-4c0.6,0,0.9,0.1,1.6,0.3V15.5 M81.7,18.5c-0.4-0.6-1-0.9-1.7-0.9c-1.4,0-2.4,1.2-2.4,3.1c0,1.1,0.4,2.2,1,2.9
		c0.3,0.4,0.8,0.6,1.3,0.6c0.6,0,1.2-0.3,1.5-0.7c0.2-0.2,0.3-0.6,0.3-1.1V18.5z"/>
	<path class="st1" d="M85.3,20.6c0,2.2,1.1,3.5,2.9,3.5c0.5,0,1-0.1,1.7-0.5l0.2,0.5l-1.9,0.9c-0.2,0-0.3,0-0.4,0
		c-1.4,0-2.3-0.3-2.9-1.1c-0.6-0.8-1-1.9-1-2.9c0-1,0.3-1.9,0.9-2.7c0.6-0.7,1.5-1.1,2.6-1.1c1.3,0,2.3,0.7,2.6,1.9
		c0.2,0.5,0.2,0.9,0.2,1.7H85.3 M88,20.1c0.7,0,0.9-0.2,0.9-0.9c0-0.9-0.7-1.6-1.7-1.6c-0.8,0-1.5,0.5-1.7,1.4
		c-0.1,0.3-0.1,0.6-0.2,1.1H88z"/>
	<path class="st1" d="M92.9,18.4c0.8-0.9,1.8-1.3,2.9-1.3c1,0,1.6,0.3,1.9,1c0.2,0.4,0.2,0.8,0.2,1.6v3.1c0,0.9,0,1,0.1,1.2
		c0.1,0.2,0.2,0.2,1.1,0.3v0.4h-3.7v-0.4c0.9-0.1,0.9-0.1,1-0.3c0.1-0.2,0.1-0.3,0.1-1.2v-2.7c0-1.6-0.4-2.2-1.7-2.2
		c-0.8,0-1.4,0.4-1.8,1.1c-0.2,0.5-0.3,1-0.3,2v1.8c0,0.9,0,1,0.1,1.2c0.1,0.2,0.2,0.2,1.1,0.3v0.4h-3.7v-0.4l0.3,0l0.3,0
		c0.6-0.1,0.7-0.2,0.7-1.4v-4c0-0.5-0.2-0.7-0.8-0.7h-0.4v-0.4c1,0,1.9-0.3,2.5-0.6V18.4"/>
	<path class="st1" d="M65.2,32.5c0,1.5-0.7,3-1.8,4.1c-1,1-2.4,1.5-3.9,1.5c-2.8,0-5.1-2.3-5.1-5.2c0-3.1,2.5-5.6,5.5-5.6
		C63,27.2,65.2,29.5,65.2,32.5 M56.2,32.2c0,3,1.6,5.3,3.8,5.3c2.2,0,3.5-1.9,3.5-4.8c0-3-1.5-5-3.8-5
		C57.6,27.7,56.2,29.5,56.2,32.2z"/>
	<path class="st1" d="M68.6,37.6c-0.5,0.3-0.7,0.4-1.1,0.4c-1.2,0-1.9-0.8-1.9-2c0-0.8,0.4-1.4,1.1-1.9c0.3-0.2,0.7-0.4,1.4-0.6
		l1.6-0.6c0-1.5-0.4-2.2-1.3-2.2c-0.6,0-1,0.3-1.4,1.1c-0.2,0.3-0.2,0.4-0.3,0.4l-0.1,0L66.2,32c-0.1,0-0.1-0.1-0.1-0.2v0l0.2-0.8
		c0.1-0.3,0.1-0.3,0.4-0.4c0.5-0.3,1.3-0.4,1.9-0.4c1.7,0,2.5,0.7,2.5,2.4v3.3c0,0.9,0.1,1.1,0.5,1.1c0.1,0,0.3,0,0.5-0.1l0.1,0.4
		L70.1,38c-0.2-0.4-0.3-0.8-0.3-1.2L68.6,37.6 M69.7,33.5c-1.4,0.5-1.6,0.6-2,0.9c-0.6,0.4-0.9,0.9-0.9,1.5c0,0.8,0.5,1.3,1.2,1.3
		c1.1,0,1.6-0.9,1.6-2.5V33.5z"/>
	<path class="st1" d="M74.8,33.4L74.8,33.4c0.4,0,0.7-0.1,1.4-0.7c1-0.9,1.5-1.3,1.5-1.5c0-0.3-0.2-0.4-0.8-0.4v-0.4h2.6v0.4
		c-0.4,0-0.5,0.1-0.8,0.3l-0.3,0.3c-0.2,0.2-0.4,0.3-0.6,0.5c-0.1,0.1-0.2,0.2-0.3,0.3l-1.4,1.3l1.4,1.6c1.5,1.7,1.9,2.1,2.5,2.7
		v0.2h-1.9l-3.4-4.1V36c0,1.3,0,1.3,0.9,1.4l0.3,0v0.4h-3.7v-0.4l0.3,0l0.3,0c0.6-0.1,0.7-0.2,0.7-1.4v-7.4c0-0.7-0.1-0.9-0.8-0.9
		h-0.4v-0.4c1-0.1,1.8-0.2,2.5-0.5V33.4"/>
	<path class="st1" d="M64.1,48.3l-0.4,1.9c-0.1,0.3-0.1,0.3-0.5,0.5c-0.9,0.3-2,0.5-3,0.5c-3.5,0-5.7-2-5.7-5.2c0-3.3,2.5-5.6,6-5.6
		c0.9,0,1.8,0.2,2.6,0.5c0.4,0.2,0.6,0.3,0.6,0.7v1.8h-0.4c-0.1-0.6-0.2-0.9-0.3-1.2c-0.4-0.8-1.5-1.3-2.7-1.3
		c-2.6,0-4.1,1.8-4.1,4.8c0,3.1,1.6,5,4.2,5c1.2,0,2-0.4,2.7-1.2c0.2-0.3,0.4-0.5,0.6-1.1H64.1"/>
	<path class="st1" d="M67.3,50.7c-0.5,0.3-0.7,0.4-1.1,0.4c-1.2,0-1.9-0.8-1.9-2c0-0.8,0.4-1.4,1.1-1.9c0.3-0.2,0.7-0.4,1.4-0.6
		l1.6-0.6c0-1.5-0.4-2.2-1.3-2.2c-0.6,0-1,0.3-1.4,1.1c-0.2,0.3-0.2,0.4-0.3,0.4l-0.1,0l-0.5-0.1c-0.1,0-0.1-0.1-0.1-0.2v0l0.2-0.8
		c0.1-0.3,0.1-0.3,0.4-0.4c0.5-0.3,1.3-0.4,1.9-0.4c1.7,0,2.5,0.7,2.5,2.4V49c0,0.9,0.1,1.1,0.5,1.1c0.1,0,0.3,0,0.5-0.1l0.1,0.4
		l-2.1,0.7c-0.2-0.4-0.3-0.8-0.3-1.2L67.3,50.7 M68.4,46.6c-1.4,0.5-1.6,0.6-2,0.9c-0.6,0.4-0.9,0.9-0.9,1.5c0,0.8,0.5,1.3,1.2,1.3
		c1.1,0,1.6-0.9,1.6-2.5V46.6z"/>
	<path class="st1" d="M72.7,52.8c0,0.9,0,1.1,0.1,1.2c0.1,0.2,0.4,0.2,1.4,0.3v0.4h-4.1v-0.4c0.8-0.1,0.9-0.1,1.1-0.3
		c0.1-0.2,0.1-0.3,0.1-1.2V45c0-0.5-0.2-0.7-0.8-0.7h-0.4v-0.4c1,0,1.9-0.3,2.5-0.6v1.2c0.7-0.9,1.5-1.2,2.5-1.2c1.8,0,3,1.4,3,3.5
		c0,2.5-1.6,4.3-3.9,4.3c-0.6,0-1-0.1-1.7-0.3V52.8 M72.7,49.9c0.6,0.5,1.1,0.7,1.7,0.7c1.5,0,2.4-1.3,2.4-3.5c0-2-0.8-3.1-2.2-3.1
		c-0.9,0-1.5,0.5-1.7,1.5c-0.1,0.4-0.1,1-0.1,1.8V49.9z"/>
	<path class="st1" d="M80.7,49.1c0,1.3,0,1.3,0.9,1.4c0,0,0.2,0,0.3,0v0.4h-3.8v-0.4l0.3,0l0.3,0c0.6-0.1,0.7-0.2,0.7-1.4v-4
		c0-0.3,0-0.4-0.1-0.5c-0.1-0.1-0.4-0.2-0.7-0.2h-0.4v-0.4c1,0,1.9-0.3,2.6-0.6V49.1 M80.7,41.5c0,0.5-0.4,0.9-0.9,0.9
		c-0.5,0-0.9-0.4-0.9-0.9c0-0.5,0.4-0.9,0.9-0.9C80.3,40.6,80.7,41,80.7,41.5z"/>
	<path class="st1" d="M86.1,44.2l-0.6,0.3h-1.7v4c0,1.3,0.3,1.8,1.2,1.8c0.3,0,0.6-0.1,1-0.2l0.1,0.4l-1.7,0.7
		c-0.8,0-1.1-0.2-1.4-0.5c-0.3-0.4-0.5-0.9-0.5-1.9v-4.3h-1.2v-0.7h1.2v-1.5l0.9-0.8h0.4v2.4h2.3V44.2"/>
	<path class="st1" d="M89,50.7c-0.5,0.3-0.7,0.4-1.1,0.4c-1.2,0-1.9-0.8-1.9-2c0-0.8,0.4-1.4,1.1-1.9c0.3-0.2,0.7-0.4,1.4-0.6
		l1.6-0.6c0-1.5-0.4-2.2-1.3-2.2c-0.6,0-1,0.3-1.4,1.1c-0.2,0.3-0.2,0.4-0.3,0.4l-0.1,0l-0.5-0.1c-0.1,0-0.1-0.1-0.1-0.2v0l0.2-0.8
		c0.1-0.3,0.1-0.3,0.4-0.4c0.5-0.3,1.3-0.4,1.9-0.4c1.7,0,2.5,0.7,2.5,2.4V49c0,0.9,0.1,1.1,0.5,1.1c0.1,0,0.3,0,0.5-0.1l0.1,0.4
		l-2.1,0.7c-0.2-0.4-0.3-0.8-0.3-1.2L89,50.7 M90.2,46.6c-1.4,0.5-1.6,0.6-2,0.9c-0.6,0.4-0.9,0.9-0.9,1.5c0,0.8,0.5,1.3,1.2,1.3
		c1.1,0,1.6-0.9,1.6-2.5V46.6z"/>
	<path class="st1" d="M95.2,49.1c0,1.3,0,1.3,0.9,1.4l0.3,0v0.4h-3.7v-0.4l0.3,0l0.3,0c0.6-0.1,0.7-0.2,0.7-1.4v-7.4
		c0-0.7-0.1-0.9-0.8-0.9h-0.4v-0.4c0.9,0,1.8-0.2,2.5-0.4V49.1"/>
</g>
</svg>
