<?xml version="1.0" encoding="utf-8"?>
<!-- Generator: Adobe Illustrator 23.0.2, SVG Export Plug-In . SVG Version: 6.00 Build 0)  -->
<svg version="1.1" id="Vrstva_1" xmlns="http://www.w3.org/2000/svg" xmlns:xlink="http://www.w3.org/1999/xlink" x="0px" y="0px"
	 viewBox="0 0 263 91" enable-background="new 0 0 263 91" xml:space="preserve">
<g>
	<path fill="#FFFFFF" d="M3.2,2.5h9.9V59H3.2V2.5z"/>
	<path fill="#FFFFFF" d="M38.4,17.8V59h-9.9V2.5h10.2l28.9,40v-40h9.9V59h-9.6L38.4,17.8z"/>
	<path fill="#FFFFFF" d="M106.3,11.2H89.2V2.5h44.1v8.7h-17.1V59h-9.9V11.2z"/>
	<path fill="#FFFFFF" d="M145,2.5h38.7v8.7h-28.8v14.6h28.2v8.7h-28.2v15.7h28.8V59H145V2.5z"/>
	<path fill="#FFFFFF" d="M197.2,2.5h38.7v8.7h-28.8v14.6h28.2v8.7h-28.2V59h-9.9V2.5z"/>
	<path fill="#FFFFFF" d="M249.9,2.5h9.9V59h-9.9V2.5z"/>
</g>
<g>
	<path fill="#426CA7" d="M87.8,81.8c0-4,3-6.7,6.7-6.7c2.7,0,4.3,1.4,5.3,2.9l-1.9,1c-0.6-1.1-1.9-1.9-3.3-1.9c-2.5,0-4.3,2-4.3,4.7
		s1.9,4.7,4.3,4.7c1.5,0,2.7-0.8,3.3-1.9l1.9,1c-1,1.5-2.6,2.9-5.3,2.9C90.8,88.5,87.8,85.8,87.8,81.8z"/>
	<path fill="#426CA7" d="M110.5,85.8h-6.1l-0.9,2.5h-2.5l5.1-12.9h2.8l5.1,12.9h-2.5L110.5,85.8z M105,83.8h4.8l-2.4-6.5L105,83.8z"
		/>
	<path fill="#426CA7" d="M117.6,75.3h5.7c2.7,0,4.2,1.9,4.2,4s-1.5,4-4.2,4h-3.4v4.8h-2.3V75.3z M123,77.3h-3.1v4.1h3.1
		c1.3,0,2.2-0.8,2.2-2S124.3,77.3,123,77.3z"/>
	<path fill="#426CA7" d="M131.3,75.3h2.3v12.9h-2.3V75.3z"/>
	<path fill="#426CA7" d="M141.7,77.3h-3.9v-2h10.1v2H144v10.9h-2.3V77.3z"/>
	<path fill="#426CA7" d="M159,85.8h-6.1l-0.9,2.5h-2.5l5.1-12.9h2.8l5.1,12.9H160L159,85.8z M153.6,83.8h4.8l-2.4-6.5L153.6,83.8z"
		/>
	<path fill="#426CA7" d="M165.4,75.3h2.3v10.9h5.7v2h-7.9V75.3z"/>
</g>
<g>
	<rect x="1.9" y="81.5" fill="#FFFFFF" width="37.1" height="1.7"/>
	<rect x="224" y="81.5" fill="#FFFFFF" width="37.1" height="1.7"/>
</g>
</svg>
