<?xml version="1.0" encoding="utf-8"?>
<!-- Generator: Adobe Illustrator 23.0.3, SVG Export Plug-In . SVG Version: 6.00 Build 0)  -->
<svg version="1.1" id="Layer_1" xmlns="http://www.w3.org/2000/svg" xmlns:xlink="http://www.w3.org/1999/xlink" x="0px" y="0px"
	 viewBox="0 0 319.9 127.3" style="enable-background:new 0 0 319.9 127.3;" xml:space="preserve">
<style type="text/css">
	.st0{fill:#FFFFFF;}
</style>
<g>
	<g>
		<g>
			<path class="st0" d="M20.5,83.1V21.8h10.8v61.3H20.5z"/>
			<path class="st0" d="M90.8,83.1l-32-43.8v43.8H48V21.8h11l31.4,42.6V21.8h10.8v61.3H90.8z"/>
			<path class="st0" d="M132.5,83.1V31.2H114v-9.5h47.9v9.5h-18.6v51.9C143.3,83.1,132.5,83.1,132.5,83.1z"/>
			<path class="st0" d="M174.6,83.1V21.8h42v9.5h-31.3v15.9H216v9.5h-30.6v17h31.3v9.5L174.6,83.1L174.6,83.1z"/>
			<path class="st0" d="M231.4,83.1V21.8h42v9.5h-31.3v15.9h30.6v9.5h-30.6v26.5L231.4,83.1L231.4,83.1z"/>
			<path class="st0" d="M288.6,83.1V21.8h10.8v61.3H288.6z"/>
		</g>
		<g>
			<path class="st0" d="M112.5,107.9c0-4.3,3.2-7.2,7.4-7.2c2.8,0,4.6,1.5,5.6,3.2l-2.1,1.1c-0.7-1.2-2-2-3.5-2
				c-2.8,0-4.8,2.1-4.8,5.1c0,2.9,2.1,5.1,4.8,5.1c1.5,0,2.9-0.9,3.5-2l2.1,1.1c-1.1,1.7-2.8,3.2-5.6,3.2
				C115.7,115.1,112.5,112.2,112.5,107.9z"/>
			<path class="st0" d="M138,114.9l-1-2.7h-6.4l-1,2.7h-2.8l5.5-14h3.1l5.5,14H138z M133.8,103.4l-2.5,6.7h5L133.8,103.4z"/>
			<path class="st0" d="M144.9,114.9v-14h6.2c2.9,0,4.6,2,4.6,4.4s-1.7,4.4-4.6,4.4h-3.7v5.2H144.9z M153.1,105.3
				c0-1.3-1-2.2-2.4-2.2h-3.4v4.5h3.4C152.1,107.5,153.1,106.6,153.1,105.3z"/>
			<path class="st0" d="M159.7,114.9v-14h2.5v14H159.7z"/>
			<path class="st0" d="M171,114.9V103h-4.2v-2.2h10.9v2.2h-4.2v11.9H171z"/>
			<path class="st0" d="M190.8,114.9l-1-2.7h-6.4l-1,2.7h-2.8l5.5-14h3.1l5.5,14H190.8z M186.5,103.4L184,110h5L186.5,103.4z"/>
			<path class="st0" d="M196.8,114.9v-14h2.5v11.9h6.2v2.2L196.8,114.9L196.8,114.9z"/>
		</g>
		<g>
			<rect x="19.1" y="107.6" class="st0" width="40.3" height="1.8"/>
		</g>
		<g>
			<rect x="260.5" y="107.6" class="st0" width="40.3" height="1.8"/>
		</g>
	</g>
</g>
</svg>
