<svg xmlns="http://www.w3.org/2000/svg" xmlns:xlink="http://www.w3.org/1999/xlink" width="174" height="39" viewBox="0 0 174 39"><defs><path id="c6wba" d="M133.612 99.996h3.152v8.464c2.445-2.313 5.127-3.399 8.23-3.399 3.058 0 5.88 1.18 8.043 3.4 2.166 2.217 3.342 5.144 3.342 8.26 0 3.114-1.176 6.09-3.342 8.261-2.163 2.22-5.031 3.447-8.042 3.447-6.539 0-11.43-4.957-11.43-12.889 0-.471 0-.991.047-1.51zm11.383 25.27c4.61 0 8.326-3.778 8.326-8.498 0-4.72-3.716-8.545-8.326-8.545-4.609 0-8.326 3.824-8.326 8.545 0 4.768 3.717 8.498 8.326 8.498zm13.564-25.27h3.2v27.818h-3.2zm24.144 18.66c0 5.95-3.999 9.773-9.126 9.773-5.126 0-9.173-3.87-9.173-9.773v-13.028h3.152v13.217c0 3.919 2.682 6.421 5.974 6.421 3.34 0 6.022-2.502 6.022-6.42v-13.218h3.15zm13.572 9.773c-3.058 0-5.928-1.18-8.091-3.4-2.164-2.218-3.34-5.194-3.34-8.308 0-3.116 1.176-6.043 3.34-8.26 2.163-2.22 5.033-3.4 8.09-3.4 3.01 0 5.88 1.18 8.044 3.4 2.165 2.17 3.34 5.144 3.34 8.26v1.133H188.09c.659 4.484 4.046 7.412 8.186 7.412 2.21 0 4.14-.85 6.02-2.597l2.258 2.124c-2.305 2.408-5.127 3.636-8.278 3.636zm8.138-13.596c-1.13-4.155-4.328-6.657-8.138-6.657-3.81 0-7.056 2.55-8.137 6.657zm5.737-14.837h3.151v8.464c2.446-2.313 5.126-3.399 8.23-3.399 3.058 0 5.88 1.18 8.045 3.4 2.163 2.217 3.339 5.144 3.339 8.26 0 3.114-1.176 6.09-3.339 8.261-2.165 2.22-5.033 3.447-8.044 3.447-6.537 0-11.43-4.957-11.43-12.889 0-.471 0-.991.048-1.51zm11.382 25.27c4.61 0 8.325-3.778 8.325-8.498 0-4.72-3.716-8.545-8.325-8.545-4.609 0-8.325 3.824-8.325 8.545 0 4.768 3.716 8.498 8.325 8.498zm25.058 3.163c-3.057 0-5.925-1.18-8.09-3.4-2.164-2.218-3.34-5.194-3.34-8.308 0-3.116 1.176-6.043 3.34-8.26 2.165-2.22 5.033-3.4 8.09-3.4 3.011 0 5.88 1.18 8.044 3.4 2.164 2.17 3.34 5.144 3.34 8.26v1.133h-19.568c.658 4.484 4.045 7.412 8.184 7.412 2.212 0 4.14-.85 6.021-2.597l2.257 2.124c-2.303 2.408-5.126 3.636-8.278 3.636zm8.138-13.596c-1.13-4.155-4.327-6.657-8.138-6.657-3.81 0-7.055 2.55-8.136 6.657zm5.705 1.888c0-7.128 2.917-10.527 9.926-11.093v3.162c-4.657.52-6.444 2.785-6.444 7.647v11.377h-3.482zm10.307 0c0-7.128 2.917-10.527 9.926-11.093v3.162c-4.657.52-6.444 2.785-6.444 7.647v11.377h-3.482zM302 105.628v19.165c0 8.504-3.23 13.243-9.478 14.207v-2.944c4.088-.953 6.231-4.204 6.231-9.61v-.708c-2.068 1.793-4.092 2.738-6.208 2.738-2.165 0-4.704-.992-6.304-2.456-2.776-2.594-2.964-5.193-2.964-8.685v-11.707h2.964v11.658c0 5.29 2.493 8.074 6.445 8.074 1.881 0 3.623-.85 4.938-2.55 1.036-1.322 1.13-3.069 1.13-5.475v-11.707zm-162.851 27.777c0 3.09-2.496 5.594-5.574 5.594S128 136.496 128 133.405c0-3.087 2.496-5.592 5.574-5.592s5.574 2.505 5.574 5.592zm-2.563 0a3.016 3.016 0 0 0-3.01-3.019 3.016 3.016 0 0 0-3.012 3.02 3.015 3.015 0 0 0 3.011 3.021 3.015 3.015 0 0 0 3.011-3.022z"/></defs><g><g transform="translate(-128 -100)"><use fill="#fff" xlink:href="#c6wba"/></g></g></svg>