<?xml version="1.0" encoding="utf-8"?>
<!-- Generator: Adobe Illustrator 21.0.0, SVG Export Plug-In . SVG Version: 6.00 Build 0)  -->
<svg version="1.1" id="Layer_1" xmlns="http://www.w3.org/2000/svg" xmlns:xlink="http://www.w3.org/1999/xlink" x="0px" y="0px"
	 viewBox="0 0 31 25" enable-background="new 0 0 31 25" xml:space="preserve">
<g>
	<g transform="translate(-1041 -2949)">
		<g>
			<path id="u9baa" fill="#FFFFFF" d="M1050.4,2973.7c11.8,0,18.3-9.5,18.3-17.8c0-0.3,0-0.5,0-0.8c1.3-0.9,2.3-2,3.2-3.2
				c-1.2,0.5-2.4,0.8-3.7,1c1.3-0.8,2.3-2,2.8-3.5c-1.3,0.7-2.6,1.2-4.1,1.5c-1.2-1.3-2.9-2-4.7-2c-3.5,0-6.4,2.8-6.4,6.3
				c0,0.5,0.1,1,0.2,1.4c-5.3-0.3-10.1-2.8-13.2-6.5c-0.6,1-0.9,2-0.9,3.1c0,2.2,1.1,4.1,2.9,5.2c-1,0-2-0.3-2.9-0.8
				c0,0,0,0.1,0,0.1c0,3,2.2,5.6,5.2,6.1c-0.9,0.3-1.9,0.3-2.9,0.1c0.8,2.5,3.2,4.3,6,4.4c-2.3,1.7-5.1,2.7-8,2.7
				c-0.5,0-1,0-1.5-0.1C1043.5,2972.8,1046.9,2973.7,1050.4,2973.7"/>
		</g>
	</g>
</g>
</svg>
