<?xml version="1.0" encoding="utf-8"?>
<!-- Generator: Adobe Illustrator 21.0.0, SVG Export Plug-In . SVG Version: 6.00 Build 0)  -->
<svg version="1.1" id="Layer_1" xmlns="http://www.w3.org/2000/svg" xmlns:xlink="http://www.w3.org/1999/xlink" x="0px" y="0px"
	 viewBox="0 0 30 28" enable-background="new 0 0 30 28" xml:space="preserve">
<g>
	<g transform="translate(-1119 -2947)">
		<g>
			<path id="eqi3a" fill="#FFFFFF" d="M1134.1,2949.5c-3.8,0-4.3,0-5.8,0.1c-1.4,0.1-2.2,0.3-2.7,0.5c-0.6,0.2-1.2,0.6-1.6,1
				c-0.5,0.5-0.8,1-1.1,1.6c-0.2,0.5-0.4,1.2-0.5,2.6c-0.1,1.5-0.1,1.9-0.1,5.7s0,4.2,0.1,5.7c0.1,1.4,0.3,2.1,0.5,2.6
				c0.3,0.7,0.6,1.1,1.1,1.6c0.5,0.5,1,0.8,1.7,1c0.5,0.2,1.3,0.4,2.7,0.5c1.5,0.1,2,0.1,5.8,0.1c3.8,0,4.3,0,5.8-0.1
				c1.4-0.1,2.2-0.3,2.7-0.5c0.6-0.2,1.2-0.6,1.6-1c0.5-0.4,0.8-1,1.1-1.6c0.2-0.5,0.4-1.2,0.5-2.6c0.1-1.5,0.1-1.9,0.1-5.7
				s0-4.2-0.1-5.7c-0.1-1.4-0.3-2.1-0.5-2.6c-0.2-0.6-0.6-1.2-1.1-1.6c-0.5-0.5-1-0.8-1.7-1c-0.5-0.2-1.3-0.4-2.7-0.5
				C1138.4,2949.5,1138,2949.5,1134.1,2949.5C1134.1,2949.5,1138,2949.5,1134.1,2949.5z M1134.1,2947c3.9,0,4.4,0,5.9,0.1
				c1.5,0.1,2.6,0.3,3.5,0.7c1,0.3,1.8,0.9,2.5,1.6c0.7,0.7,1.3,1.5,1.7,2.5c0.4,0.9,0.6,1.9,0.7,3.4c0.1,1.5,0.1,2,0.1,5.8
				s0,4.3-0.1,5.8c-0.1,1.5-0.3,2.5-0.7,3.4c-0.4,0.9-0.9,1.8-1.7,2.5c-0.7,0.7-1.6,1.3-2.5,1.6c-0.9,0.3-2,0.6-3.5,0.6
				c-1.5,0.1-2,0.1-5.9,0.1c-3.9,0-4.4,0-5.9-0.1c-1.5-0.1-2.6-0.3-3.5-0.7c-1-0.3-1.8-0.9-2.5-1.6c-0.7-0.7-1.3-1.5-1.7-2.5
				c-0.4-0.9-0.6-1.9-0.7-3.4c-0.1-1.5-0.1-2-0.1-5.8s0-4.3,0.1-5.8c0.1-1.5,0.3-2.5,0.7-3.4c0.4-0.9,0.9-1.8,1.7-2.5
				c0.7-0.7,1.6-1.3,2.5-1.6c0.9-0.3,2-0.6,3.5-0.6C1129.7,2947,1130.2,2947,1134.1,2947z M1141.5,2961c0,4-3.3,7.2-7.4,7.2
				s-7.4-3.2-7.4-7.2s3.3-7.2,7.4-7.2S1141.5,2957,1141.5,2961z M1138.9,2961c0-2.6-2.1-4.7-4.8-4.7s-4.8,2.1-4.8,4.7
				s2.1,4.7,4.8,4.7S1138.9,2963.6,1138.9,2961z M1143.5,2953.5c0,0.9-0.8,1.7-1.7,1.7c-1,0-1.7-0.8-1.7-1.7s0.8-1.7,1.7-1.7
				S1143.5,2952.6,1143.5,2953.5z"/>
		</g>
	</g>
</g>
</svg>
