<?xml version="1.0" encoding="utf-8"?>
<!-- Generator: Adobe Illustrator 21.0.0, SVG Export Plug-In . SVG Version: 6.00 Build 0)  -->
<svg version="1.1" id="Layer_1" xmlns="http://www.w3.org/2000/svg" xmlns:xlink="http://www.w3.org/1999/xlink" x="0px" y="0px"
	 viewBox="0 0 36 24" enable-background="new 0 0 36 24" xml:space="preserve">
<g>
	<g transform="translate(-1197 -2949)">
		<g>
			<path id="yulya" fill="#FFFFFF" d="M1233,2961c0,0,0,5.6-0.7,8.3c-0.4,1.5-1.6,2.7-3.1,3.1c-2.7,0.7-13.8,0.7-13.8,0.7
				s-11,0-13.8-0.7c-1.5-0.4-2.7-1.6-3.1-3.1c-0.7-2.7-0.7-8.3-0.7-8.3s0-5.6,0.7-8.3c0.4-1.5,1.6-2.7,3.1-3.1
				c2.7-0.7,13.8-0.7,13.8-0.7s11,0,13.8,0.7c1.5,0.4,2.7,1.6,3.1,3.1C1233,2955.4,1233,2961,1233,2961z M1221,2961l-9.2-5.1v10.2
				L1221,2961z"/>
		</g>
	</g>
</g>
</svg>
